VIC WA NT Print-Regular.ufo
<glyph name="exclam" format="2">
	<advance width="247"/>
	<unicode hex="0021"/>
	<outline>
		<contour>
			<point x="97" y="175" type="curve" smooth="yes"/>
			<point x="109" y="174"/>
			<point x="124" y="183"/>
			<point x="127" y="202" type="curve" smooth="yes"/>
			<point x="203" y="629" type="line" smooth="yes"/>
			<point x="205" y="643"/>
			<point x="195" y="650"/>
			<point x="183" y="650" type="curve" smooth="yes"/>
			<point x="170" y="650"/>
			<point x="155" y="643"/>
			<point x="152" y="629" type="curve" smooth="yes"/>
			<point x="76" y="202" type="line" smooth="yes"/>
			<point x="73" y="185"/>
			<point x="85" y="176"/>
		</contour>
		<contour>
			<point x="69" y="-24" type="curve" smooth="yes"/>
			<point x="91" y="-24"/>
			<point x="111" y="-4"/>
			<point x="111" y="17" type="curve" smooth="yes"/>
			<point x="111" y="38"/>
			<point x="91" y="57"/>
			<point x="69" y="57" type="curve" smooth="yes"/>
			<point x="46" y="57"/>
			<point x="30" y="37"/>
			<point x="30" y="17" type="curve" smooth="yes"/>
			<point x="30" y="-3"/>
			<point x="46" y="-24"/>
		</contour>
	</outline>
</glyph>
<glyph name="quotedbl" format="2">
  <advance width="290"/>
  <unicode hex="0022"/>
  <outline>
    <contour>
      <point x="125" y="500" type="curve" smooth="yes"/>
      <point x="137" y="500"/>
      <point x="151" y="508"/>
      <point x="154" y="524" type="curve" smooth="yes"/>
      <point x="171" y="620" type="line" smooth="yes"/>
      <point x="175" y="640"/>
      <point x="162" y="650"/>
      <point x="149" y="650" type="curve" smooth="yes"/>
      <point x="137" y="650"/>
      <point x="123" y="641"/>
      <point x="120" y="624" type="curve" smooth="yes"/>
      <point x="103" y="528" type="line" smooth="yes"/>
      <point x="100" y="510"/>
      <point x="112" y="500"/>
    </contour>
    <contour>
      <point x="234" y="500" type="curve" smooth="yes"/>
      <point x="246" y="500"/>
      <point x="260" y="507"/>
      <point x="262" y="521" type="curve" smooth="yes"/>
      <point x="279" y="620" type="line" smooth="yes"/>
      <point x="282" y="640"/>
      <point x="270" y="650"/>
      <point x="256" y="650" type="curve" smooth="yes"/>
      <point x="244" y="650"/>
      <point x="232" y="642"/>
      <point x="229" y="628" type="curve" smooth="yes"/>
      <point x="211" y="528" type="line" smooth="yes"/>
      <point x="208" y="509"/>
      <point x="220" y="500"/>
    </contour>
  </outline>
</glyph>
<glyph name="numbersign" format="2">
	<advance width="779"/>
	<unicode hex="0023"/>
	<outline>
		<contour>
			<point x="202" y="0" type="curve" smooth="yes"/>
			<point x="215" y="-1"/>
			<point x="230" y="8"/>
			<point x="234" y="28" type="curve" smooth="yes"/>
			<point x="325" y="543" type="line" smooth="yes"/>
			<point x="328" y="559"/>
			<point x="317" y="568"/>
			<point x="304" y="568" type="curve" smooth="yes"/>
			<point x="291" y="568"/>
			<point x="277" y="560"/>
			<point x="274" y="543" type="curve" smooth="yes"/>
			<point x="183" y="28" type="line" smooth="yes"/>
			<point x="180" y="10"/>
			<point x="190" y="0"/>
		</contour>
		<contour>
			<point x="89" y="147" type="curve" smooth="yes"/>
			<point x="634" y="147" type="line" smooth="yes"/>
			<point x="651" y="147"/>
			<point x="660" y="159"/>
			<point x="660" y="170" type="curve" smooth="yes"/>
			<point x="660" y="181"/>
			<point x="652" y="192"/>
			<point x="634" y="192" type="curve" smooth="yes"/>
			<point x="89" y="192" type="line" smooth="yes"/>
			<point x="71" y="192"/>
			<point x="63" y="181"/>
			<point x="63" y="170" type="curve" smooth="yes"/>
			<point x="63" y="159"/>
			<point x="72" y="147"/>
		</contour>
		<contour>
			<point x="460" y="0" type="curve" smooth="yes"/>
			<point x="473" y="0"/>
			<point x="487" y="9"/>
			<point x="490" y="28" type="curve" smooth="yes"/>
			<point x="581" y="543" type="line" smooth="yes"/>
			<point x="584" y="559"/>
			<point x="573" y="567"/>
			<point x="561" y="568" type="curve" smooth="yes"/>
			<point x="548" y="568"/>
			<point x="533" y="560"/>
			<point x="530" y="543" type="curve" smooth="yes"/>
			<point x="439" y="28" type="line" smooth="yes"/>
			<point x="436" y="9"/>
			<point x="447" y="-1"/>
		</contour>
		<contour>
			<point x="131" y="384" type="curve" smooth="yes"/>
			<point x="675" y="384" type="line" smooth="yes"/>
			<point x="693" y="384"/>
			<point x="702" y="395"/>
			<point x="702" y="406" type="curve" smooth="yes"/>
			<point x="702" y="417"/>
			<point x="693" y="429"/>
			<point x="675" y="429" type="curve" smooth="yes"/>
			<point x="131" y="429" type="line" smooth="yes"/>
			<point x="113" y="429"/>
			<point x="104" y="417"/>
			<point x="104" y="406" type="curve" smooth="yes"/>
			<point x="104" y="395"/>
			<point x="113" y="384"/>
		</contour>
	</outline>
</glyph>
<glyph name="dollar" format="2">
	<advance width="437"/>
	<unicode hex="0024"/>
	<outline>
		<contour>
			<point x="141" y="-4" type="curve" smooth="yes"/>
			<point x="257" y="-4"/>
			<point x="344" y="28"/>
			<point x="364" y="141" type="curve" smooth="yes"/>
			<point x="381" y="237"/>
			<point x="323" y="279"/>
			<point x="246" y="325" type="curve" smooth="yes"/>
			<point x="167" y="372"/>
			<point x="117" y="390"/>
			<point x="128" y="447" type="curve" smooth="yes"/>
			<point x="137" y="499"/>
			<point x="194" y="523"/>
			<point x="289" y="523" type="curve" smooth="yes"/>
			<point x="340" y="523"/>
			<point x="369" y="498"/>
			<point x="380" y="462" type="curve" smooth="yes"/>
			<point x="384" y="449"/>
			<point x="397" y="443"/>
			<point x="411" y="447" type="curve" smooth="yes"/>
			<point x="425" y="451"/>
			<point x="428" y="467"/>
			<point x="423" y="485" type="curve" smooth="yes"/>
			<point x="411" y="532"/>
			<point x="368" y="569"/>
			<point x="290" y="569" type="curve" smooth="yes"/>
			<point x="162" y="569"/>
			<point x="93" y="520"/>
			<point x="80" y="451" type="curve" smooth="yes"/>
			<point x="65" y="371"/>
			<point x="130" y="335"/>
			<point x="206" y="289" type="curve" smooth="yes"/>
			<point x="290" y="238"/>
			<point x="326" y="212"/>
			<point x="316" y="148" type="curve" smooth="yes"/>
			<point x="302" y="61"/>
			<point x="230" y="42"/>
			<point x="160" y="42" type="curve" smooth="yes"/>
			<point x="97" y="42"/>
			<point x="62" y="68"/>
			<point x="56" y="99" type="curve" smooth="yes"/>
			<point x="54" y="116"/>
			<point x="39" y="122"/>
			<point x="25" y="118" type="curve" smooth="yes"/>
			<point x="9" y="114"/>
			<point x="6" y="98"/>
			<point x="9" y="82" type="curve" smooth="yes"/>
			<point x="18" y="30"/>
			<point x="72" y="-4"/>
		</contour>
		<contour>
			<point x="314" y="618" type="line" smooth="yes"/>
			<point x="318" y="639"/>
			<point x="308" y="650"/>
			<point x="296" y="650" type="curve" smooth="yes"/>
			<point x="285" y="650"/>
			<point x="272" y="641"/>
			<point x="269" y="622" type="curve" smooth="yes"/>
			<point x="150" y="-52" type="line" smooth="yes"/>
			<point x="147" y="-71"/>
			<point x="157" y="-80"/>
			<point x="168" y="-80" type="curve" smooth="yes"/>
			<point x="179" y="-80"/>
			<point x="192" y="-71"/>
			<point x="195" y="-54" type="curve" smooth="yes"/>
		</contour>
	</outline>
</glyph>
<glyph name="percent" format="2">
	<advance width="421"/>
	<unicode hex="0025"/>
	<outline>
		<contour>
			<point x="368" y="616" type="line" smooth="yes"/>
			<point x="377" y="637"/>
			<point x="362" y="650"/>
			<point x="347" y="650" type="curve" smooth="yes"/>
			<point x="336" y="650"/>
			<point x="325" y="644"/>
			<point x="318" y="627" type="curve" smooth="yes"/>
			<point x="61" y="31" type="line" smooth="yes"/>
			<point x="53" y="12"/>
			<point x="67" y="0"/>
			<point x="83" y="0" type="curve" smooth="yes"/>
			<point x="94" y="0"/>
			<point x="105" y="6"/>
			<point x="111" y="20" type="curve" smooth="yes"/>
		</contour>
		<contour>
			<point x="248" y="-4" type="curve" smooth="yes"/>
			<point x="312" y="-4"/>
			<point x="378" y="95"/>
			<point x="378" y="158" type="curve" smooth="yes"/>
			<point x="378" y="197"/>
			<point x="355" y="218"/>
			<point x="310" y="218" type="curve" smooth="yes"/>
			<point x="273" y="218"/>
			<point x="247" y="193"/>
			<point x="232" y="167" type="curve" smooth="yes"/>
			<point x="221" y="146"/>
			<point x="204" y="106"/>
			<point x="204" y="59" type="curve" smooth="yes"/>
			<point x="204" y="12"/>
			<point x="221" y="-4"/>
		</contour>
		<contour>
			<point x="255" y="35" type="curve" smooth="yes"/>
			<point x="243" y="35"/>
			<point x="243" y="49"/>
			<point x="243" y="66" type="curve" smooth="yes"/>
			<point x="243" y="93"/>
			<point x="255" y="122"/>
			<point x="269" y="151" type="curve"/>
			<point x="281" y="171"/>
			<point x="291" y="178"/>
			<point x="308" y="178" type="curve" smooth="yes"/>
			<point x="330" y="178"/>
			<point x="338" y="172"/>
			<point x="338" y="151" type="curve" smooth="yes"/>
			<point x="338" y="113"/>
			<point x="286" y="35"/>
		</contour>
		<contour>
			<point x="105" y="432" type="curve" smooth="yes"/>
			<point x="169" y="432"/>
			<point x="235" y="531"/>
			<point x="235" y="594" type="curve" smooth="yes"/>
			<point x="235" y="633"/>
			<point x="212" y="654"/>
			<point x="167" y="654" type="curve" smooth="yes"/>
			<point x="130" y="654"/>
			<point x="104" y="629"/>
			<point x="89" y="603" type="curve" smooth="yes"/>
			<point x="78" y="582"/>
			<point x="61" y="542"/>
			<point x="61" y="495" type="curve" smooth="yes"/>
			<point x="61" y="448"/>
			<point x="78" y="432"/>
		</contour>
		<contour>
			<point x="112" y="471" type="curve" smooth="yes"/>
			<point x="100" y="471"/>
			<point x="100" y="485"/>
			<point x="100" y="502" type="curve" smooth="yes"/>
			<point x="100" y="529"/>
			<point x="112" y="558"/>
			<point x="126" y="587" type="curve"/>
			<point x="138" y="607"/>
			<point x="148" y="614"/>
			<point x="165" y="614" type="curve" smooth="yes"/>
			<point x="187" y="614"/>
			<point x="195" y="608"/>
			<point x="195" y="587" type="curve" smooth="yes"/>
			<point x="195" y="549"/>
			<point x="143" y="471"/>
		</contour>
	</outline>
</glyph>
<glyph name="ampersand" format="2">
  <advance width="562"/>
  <unicode hex="0026"/>
  <outline>
    <contour>
      <point x="187" y="-4" type="curve" smooth="yes"/>
      <point x="287" y="-4"/>
      <point x="370" y="62"/>
      <point x="473" y="224" type="curve" smooth="yes"/>
      <point x="483" y="239"/>
      <point x="487" y="257"/>
      <point x="473" y="267" type="curve" smooth="yes"/>
      <point x="458" y="277"/>
      <point x="442" y="270"/>
      <point x="430" y="254" type="curve"/>
      <point x="336" y="107"/>
      <point x="267" y="46"/>
      <point x="199" y="46" type="curve" smooth="yes"/>
      <point x="135" y="46"/>
      <point x="95" y="88"/>
      <point x="95" y="156" type="curve" smooth="yes"/>
      <point x="95" y="224"/>
      <point x="139" y="284"/>
      <point x="226" y="336" type="curve" smooth="yes"/>
      <point x="272" y="363" type="line" smooth="yes"/>
      <point x="383" y="428"/>
      <point x="435" y="491"/>
      <point x="435" y="556" type="curve" smooth="yes"/>
      <point x="435" y="613"/>
      <point x="380" y="650"/>
      <point x="320" y="650" type="curve" smooth="yes"/>
      <point x="218" y="650"/>
      <point x="142" y="595"/>
      <point x="142" y="520" type="curve" smooth="yes"/>
      <point x="142" y="488"/>
      <point x="167" y="424"/>
      <point x="207" y="353" type="curve" smooth="yes"/>
      <point x="393" y="22" type="line" smooth="yes"/>
      <point x="403" y="5"/>
      <point x="421" y="-9"/>
      <point x="436" y="1" type="curve" smooth="yes"/>
      <point x="450" y="11"/>
      <point x="446" y="33"/>
      <point x="438" y="47" type="curve"/>
      <point x="250" y="383" type="line" smooth="yes"/>
      <point x="215" y="447"/>
      <point x="193" y="500"/>
      <point x="193" y="520" type="curve" smooth="yes"/>
      <point x="193" y="565"/>
      <point x="244" y="600"/>
      <point x="312" y="600" type="curve" smooth="yes"/>
      <point x="362" y="600"/>
      <point x="382" y="574"/>
      <point x="382" y="546" type="curve" smooth="yes"/>
      <point x="382" y="500"/>
      <point x="327" y="445"/>
      <point x="225" y="387" type="curve" smooth="yes"/>
      <point x="204" y="375" type="line" smooth="yes"/>
      <point x="95" y="312"/>
      <point x="40" y="238"/>
      <point x="40" y="154" type="curve" smooth="yes"/>
      <point x="40" y="56"/>
      <point x="96" y="-4"/>
    </contour>
  </outline>
</glyph>
<glyph name="quotesingle" format="2">
  <advance width="182"/>
  <unicode hex="0027"/>
  <outline>
    <contour>
      <point x="126" y="500" type="curve" smooth="yes"/>
      <point x="138" y="500"/>
      <point x="152" y="507"/>
      <point x="154" y="521" type="curve" smooth="yes"/>
      <point x="171" y="620" type="line" smooth="yes"/>
      <point x="174" y="640"/>
      <point x="162" y="650"/>
      <point x="148" y="650" type="curve" smooth="yes"/>
      <point x="136" y="650"/>
      <point x="124" y="642"/>
      <point x="121" y="628" type="curve" smooth="yes"/>
      <point x="103" y="528" type="line" smooth="yes"/>
      <point x="100" y="509"/>
      <point x="112" y="500"/>
    </contour>
  </outline>
</glyph>
<glyph name="parenleft" format="2">
  <advance width="365"/>
  <unicode hex="0028"/>
  <outline>
    <contour>
      <point x="188" y="-297" type="curve" smooth="yes"/>
      <point x="196" y="-292"/>
      <point x="197" y="-278"/>
      <point x="189" y="-261" type="curve" smooth="yes"/>
      <point x="117" y="-110"/>
      <point x="84" y="73"/>
      <point x="110" y="219" type="curve" smooth="yes"/>
      <point x="132" y="342"/>
      <point x="223" y="490"/>
      <point x="340" y="607" type="curve" smooth="yes"/>
      <point x="358" y="625"/>
      <point x="360" y="639"/>
      <point x="353" y="646" type="curve" smooth="yes"/>
      <point x="345" y="654"/>
      <point x="327" y="651"/>
      <point x="307" y="633" type="curve" smooth="yes"/>
      <point x="177" y="509"/>
      <point x="83" y="351"/>
      <point x="59" y="219" type="curve" smooth="yes"/>
      <point x="34" y="78"/>
      <point x="70" y="-114"/>
      <point x="153" y="-283" type="curve" smooth="yes"/>
      <point x="161" y="-299"/>
      <point x="177" y="-303"/>
    </contour>
  </outline>
</glyph>
<glyph name="parenright" format="2">
  <advance width="365"/>
  <unicode hex="0029"/>
  <outline>
    <contour>
      <point x="-23" y="-274" type="curve" smooth="yes"/>
      <point x="-15" y="-284"/>
      <point x="2" y="-285"/>
      <point x="15" y="-273" type="curve" smooth="yes"/>
      <point x="149" y="-144"/>
      <point x="249" y="24"/>
      <point x="275" y="167" type="curve" smooth="yes"/>
      <point x="298" y="298"/>
      <point x="263" y="479"/>
      <point x="183" y="640" type="curve" smooth="yes"/>
      <point x="170" y="664"/>
      <point x="155" y="673"/>
      <point x="144" y="668" type="curve" smooth="yes"/>
      <point x="135" y="664"/>
      <point x="132" y="650"/>
      <point x="143" y="627" type="curve" smooth="yes"/>
      <point x="213" y="476"/>
      <point x="248" y="308"/>
      <point x="227" y="186" type="curve" smooth="yes"/>
      <point x="201" y="39"/>
      <point x="107" y="-124"/>
      <point x="-12" y="-240" type="curve" smooth="yes"/>
      <point x="-25" y="-253"/>
      <point x="-29" y="-267"/>
    </contour>
  </outline>
</glyph>
<glyph name="asterisk" format="2">
	<advance width="352"/>
	<unicode hex="002A"/>
	<outline>
		<contour>
			<point x="292" y="574" type="line" smooth="yes"/>
			<point x="309" y="584"/>
			<point x="312" y="598"/>
			<point x="306" y="607" type="curve" smooth="yes"/>
			<point x="301" y="614"/>
			<point x="289" y="617"/>
			<point x="274" y="608" type="curve" smooth="yes"/>
			<point x="138" y="524" type="line" smooth="yes"/>
			<point x="121" y="513"/>
			<point x="117" y="499"/>
			<point x="123" y="491" type="curve" smooth="yes"/>
			<point x="128" y="483"/>
			<point x="140" y="481"/>
			<point x="156" y="490" type="curve" smooth="yes"/>
		</contour>
		<contour>
			<point x="256" y="492" type="line" smooth="yes"/>
			<point x="269" y="482"/>
			<point x="282" y="484"/>
			<point x="289" y="492" type="curve" smooth="yes"/>
			<point x="294" y="499"/>
			<point x="294" y="511"/>
			<point x="281" y="521" type="curve" smooth="yes"/>
			<point x="173" y="606" type="line" smooth="yes"/>
			<point x="161" y="616"/>
			<point x="149" y="614"/>
			<point x="143" y="606" type="curve" smooth="yes"/>
			<point x="136" y="599"/>
			<point x="136" y="586"/>
			<point x="149" y="576" type="curve" smooth="yes"/>
		</contour>
		<contour>
			<point x="247" y="623" type="line" smooth="yes"/>
			<point x="250" y="641"/>
			<point x="242" y="650"/>
			<point x="233" y="650" type="curve" smooth="yes"/>
			<point x="223" y="650"/>
			<point x="211" y="641"/>
			<point x="208" y="623" type="curve" smooth="yes"/>
			<point x="182" y="475" type="line" smooth="yes"/>
			<point x="179" y="458"/>
			<point x="186" y="450"/>
			<point x="195" y="448" type="curve" smooth="yes"/>
			<point x="205" y="447"/>
			<point x="218" y="456"/>
			<point x="221" y="475" type="curve" smooth="yes"/>
		</contour>
	</outline>
</glyph>
<glyph name="period" format="2">
  <advance width="212"/>
  <unicode hex="002E"/>
  <outline>
    <contour>
      <point x="74" y="-1" type="curve" smooth="yes"/>
      <point x="97" y="-1"/>
      <point x="114" y="17"/>
      <point x="114" y="40" type="curve" smooth="yes"/>
      <point x="114" y="62"/>
      <point x="97" y="79"/>
      <point x="74" y="79" type="curve" smooth="yes"/>
      <point x="51" y="79"/>
      <point x="34" y="62"/>
      <point x="34" y="40" type="curve" smooth="yes"/>
      <point x="34" y="17"/>
      <point x="51" y="-1"/>
    </contour>
  </outline>
</glyph>
<glyph name="slash" format="2">
  <advance width="384"/>
  <unicode hex="002F"/>
  <outline>
    <contour>
      <point x="59" y="0" type="curve" smooth="yes"/>
      <point x="70" y="0"/>
      <point x="81" y="6"/>
      <point x="87" y="20" type="curve" smooth="yes"/>
      <point x="344" y="616" type="line" smooth="yes"/>
      <point x="353" y="637"/>
      <point x="338" y="650"/>
      <point x="323" y="650" type="curve" smooth="yes"/>
      <point x="312" y="650"/>
      <point x="301" y="644"/>
      <point x="294" y="627" type="curve" smooth="yes"/>
      <point x="37" y="31" type="line" smooth="yes"/>
      <point x="29" y="12"/>
      <point x="43" y="0"/>
    </contour>
  </outline>
</glyph>
<glyph name="zero" format="2">
	<advance width="457"/>
	<unicode hex="0030"/>
	<outline>
		<contour>
			<point x="170" y="-4" type="curve" smooth="yes"/>
			<point x="286" y="-3"/>
			<point x="427" y="186"/>
			<point x="427" y="360" type="curve" smooth="yes"/>
			<point x="427" y="435"/>
			<point x="398" y="568"/>
			<point x="292" y="568" type="curve" smooth="yes"/>
			<point x="103" y="568"/>
			<point x="32" y="333"/>
			<point x="32" y="213" type="curve" smooth="yes"/>
			<point x="32" y="134"/>
			<point x="70" y="-5"/>
		</contour>
		<contour>
			<point x="169" y="46" type="curve" smooth="yes"/>
			<point x="113" y="46"/>
			<point x="82" y="137"/>
			<point x="82" y="208" type="curve" smooth="yes"/>
			<point x="82" y="332"/>
			<point x="153" y="518"/>
			<point x="290" y="518" type="curve" smooth="yes"/>
			<point x="355" y="518"/>
			<point x="377" y="421"/>
			<point x="377" y="363" type="curve" smooth="yes"/>
			<point x="377" y="170"/>
			<point x="227" y="46"/>
		</contour>
	</outline>
</glyph>
<glyph name="one" format="2">
  <advance width="181"/>
  <unicode hex="0031"/>
  <outline>
    <contour>
      <point x="37" y="0" type="curve" smooth="yes"/>
      <point x="49" y="0"/>
      <point x="62" y="6"/>
      <point x="65" y="23" type="curve" smooth="yes"/>
      <point x="157" y="543" type="line" smooth="yes"/>
      <point x="160" y="560"/>
      <point x="149" y="568"/>
      <point x="136" y="568" type="curve" smooth="yes"/>
      <point x="123" y="568"/>
      <point x="109" y="561"/>
      <point x="106" y="543" type="curve" smooth="yes"/>
      <point x="15" y="28" type="line" smooth="yes"/>
      <point x="12" y="9"/>
      <point x="24" y="0"/>
    </contour>
  </outline>
</glyph>
<glyph name="two" format="2">
  <advance width="452"/>
  <unicode hex="0032"/>
  <outline>
    <contour>
      <point x="38" y="0" type="curve"/>
      <point x="310" y="0" type="line" smooth="yes"/>
      <point x="330" y="0"/>
      <point x="336" y="13"/>
      <point x="336" y="25" type="curve" smooth="yes"/>
      <point x="336" y="37"/>
      <point x="330" y="50"/>
      <point x="310" y="50" type="curve" smooth="yes"/>
      <point x="81" y="50" type="line"/>
      <point x="80" y="27" type="line"/>
      <point x="156" y="115"/>
      <point x="293" y="263"/>
      <point x="306" y="278" type="curve" smooth="yes"/>
      <point x="379" y="367"/>
      <point x="414" y="428"/>
      <point x="414" y="473" type="curve" smooth="yes"/>
      <point x="414" y="526"/>
      <point x="357" y="568"/>
      <point x="287" y="568" type="curve" smooth="yes"/>
      <point x="225" y="568"/>
      <point x="156" y="541"/>
      <point x="113" y="505" type="curve" smooth="yes"/>
      <point x="89" y="485"/>
      <point x="93" y="472"/>
      <point x="101" y="463" type="curve" smooth="yes"/>
      <point x="109" y="454"/>
      <point x="125" y="451"/>
      <point x="150" y="471" type="curve" smooth="yes"/>
      <point x="185" y="500"/>
      <point x="241" y="518"/>
      <point x="287" y="518" type="curve" smooth="yes"/>
      <point x="329" y="518"/>
      <point x="361" y="499"/>
      <point x="361" y="469" type="curve" smooth="yes"/>
      <point x="361" y="430"/>
      <point x="323" y="376"/>
      <point x="286" y="332" type="curve" smooth="yes"/>
      <point x="260" y="301"/>
      <point x="152" y="185"/>
      <point x="22" y="35" type="curve" smooth="yes"/>
      <point x="5" y="16"/>
      <point x="16" y="0"/>
    </contour>
  </outline>
</glyph>
<glyph name="three" format="2">
  <advance width="437"/>
  <unicode hex="0033"/>
  <outline>
    <contour>
      <point x="129" y="-4" type="curve" smooth="yes"/>
      <point x="265" y="-4"/>
      <point x="386" y="105"/>
      <point x="386" y="226" type="curve" smooth="yes"/>
      <point x="386" y="301"/>
      <point x="338" y="369"/>
      <point x="213" y="341" type="curve"/>
      <point x="209" y="327" type="line"/>
      <point x="330" y="415"/>
      <point x="383" y="458"/>
      <point x="383" y="500" type="curve" smooth="yes"/>
      <point x="383" y="542"/>
      <point x="345" y="568"/>
      <point x="284" y="568" type="curve" smooth="yes"/>
      <point x="236" y="568"/>
      <point x="175" y="551"/>
      <point x="115" y="511" type="curve" smooth="yes"/>
      <point x="90" y="495"/>
      <point x="95" y="478"/>
      <point x="100" y="470" type="curve" smooth="yes"/>
      <point x="106" y="460"/>
      <point x="122" y="455"/>
      <point x="135" y="464" type="curve" smooth="yes"/>
      <point x="196" y="505"/>
      <point x="253" y="522"/>
      <point x="290" y="522" type="curve" smooth="yes"/>
      <point x="317" y="522"/>
      <point x="333" y="514"/>
      <point x="333" y="500" type="curve" smooth="yes"/>
      <point x="333" y="466"/>
      <point x="198" y="368"/>
      <point x="114" y="316" type="curve" smooth="yes"/>
      <point x="97" y="305"/>
      <point x="100" y="288"/>
      <point x="104" y="280" type="curve" smooth="yes"/>
      <point x="109" y="270"/>
      <point x="127" y="263"/>
      <point x="142" y="273" type="curve" smooth="yes"/>
      <point x="189" y="301"/>
      <point x="229" y="305"/>
      <point x="257" y="305" type="curve" smooth="yes"/>
      <point x="316" y="305"/>
      <point x="336" y="266"/>
      <point x="336" y="225" type="curve" smooth="yes"/>
      <point x="336" y="131"/>
      <point x="239" y="47"/>
      <point x="130" y="47" type="curve" smooth="yes"/>
      <point x="106" y="47"/>
      <point x="82" y="54"/>
      <point x="67" y="66" type="curve" smooth="yes"/>
      <point x="43" y="84"/>
      <point x="30" y="74"/>
      <point x="25" y="67" type="curve" smooth="yes"/>
      <point x="20" y="60"/>
      <point x="14" y="45"/>
      <point x="39" y="25" type="curve" smooth="yes"/>
      <point x="61" y="7"/>
      <point x="95" y="-4"/>
    </contour>
  </outline>
</glyph>
<glyph name="four" format="2">
  <advance width="467"/>
  <unicode hex="0034"/>
  <outline>
    <contour>
      <point x="69" y="135" type="curve" smooth="yes"/>
      <point x="369" y="135" type="line" smooth="yes"/>
      <point x="385" y="135"/>
      <point x="395" y="146"/>
      <point x="395" y="158" type="curve" smooth="yes"/>
      <point x="395" y="170"/>
      <point x="385" y="180"/>
      <point x="369" y="180" type="curve" smooth="yes"/>
      <point x="107" y="180" type="line"/>
      <point x="318" y="540" type="line" smooth="yes"/>
      <point x="328" y="558"/>
      <point x="311" y="569"/>
      <point x="299" y="569" type="curve" smooth="yes"/>
      <point x="287" y="569"/>
      <point x="274" y="565"/>
      <point x="264" y="547" type="curve" smooth="yes"/>
      <point x="47" y="177" type="line" smooth="yes"/>
      <point x="32" y="151"/>
      <point x="51.0" y="135.0"/>
    </contour>
    <contour>
      <point x="218" y="0" type="curve" smooth="yes"/>
      <point x="230" y="-1"/>
      <point x="244" y="6"/>
      <point x="248" y="26" type="curve" smooth="yes"/>
      <point x="291" y="258" type="line" smooth="yes"/>
      <point x="294" y="275"/>
      <point x="283" y="285"/>
      <point x="271" y="287" type="curve" smooth="yes"/>
      <point x="258" y="289"/>
      <point x="244" y="282"/>
      <point x="241" y="265" type="curve" smooth="yes"/>
      <point x="198" y="31" type="line" smooth="yes"/>
      <point x="194" y="11"/>
      <point x="205" y="1"/>
    </contour>
  </outline>
</glyph>
<glyph name="five" format="2">
	<advance width="382"/>
	<unicode hex="0035"/>
	<outline>
		<contour>
			<point x="95" y="-3" type="curve" smooth="yes"/>
			<point x="226" y="-3"/>
			<point x="318" y="125"/>
			<point x="318" y="212" type="curve" smooth="yes"/>
			<point x="318" y="287"/>
			<point x="254" y="354"/>
			<point x="152" y="354" type="curve" smooth="yes"/>
			<point x="124" y="354"/>
			<point x="96" y="349"/>
			<point x="61" y="337" type="curve"/>
			<point x="65" y="288" type="line"/>
			<point x="102" y="299"/>
			<point x="130" y="304"/>
			<point x="155" y="304" type="curve" smooth="yes"/>
			<point x="234" y="304"/>
			<point x="268" y="252"/>
			<point x="268" y="211" type="curve" smooth="yes"/>
			<point x="268" y="149"/>
			<point x="192" y="47"/>
			<point x="95" y="47" type="curve" smooth="yes"/>
			<point x="70" y="47"/>
			<point x="48" y="54"/>
			<point x="34" y="67" type="curve" smooth="yes"/>
			<point x="27" y="74"/>
			<point x="20" y="76"/>
			<point x="13" y="76" type="curve" smooth="yes"/>
			<point x="0" y="76"/>
			<point x="-11" y="67"/>
			<point x="-11" y="54" type="curve" smooth="yes"/>
			<point x="-11" y="46"/>
			<point x="-7" y="37"/>
			<point x="2" y="28" type="curve" smooth="yes"/>
			<point x="23" y="8"/>
			<point x="56" y="-3"/>
		</contour>
		<contour>
			<point x="56" y="286" type="curve" smooth="yes"/>
			<point x="68" y="286"/>
			<point x="81" y="294"/>
			<point x="84" y="310" type="curve" smooth="yes"/>
			<point x="125" y="541" type="line"/>
			<point x="108" y="568" type="line"/>
			<point x="98" y="568"/>
			<point x="90" y="566"/>
			<point x="85" y="562" type="curve" smooth="yes"/>
			<point x="80" y="558"/>
			<point x="76" y="551"/>
			<point x="74" y="541" type="curve" smooth="yes"/>
			<point x="33" y="310" type="line" smooth="yes"/>
			<point x="30" y="295"/>
			<point x="43" y="286"/>
		</contour>
		<contour>
			<point x="107" y="523" type="line"/>
			<point x="351" y="523" type="line" smooth="yes"/>
			<point x="371" y="523"/>
			<point x="377" y="533"/>
			<point x="377" y="545" type="curve" smooth="yes"/>
			<point x="377" y="557"/>
			<point x="371" y="568"/>
			<point x="351" y="568" type="curve" smooth="yes"/>
			<point x="107" y="568" type="line"/>
		</contour>
	</outline>
</glyph>
<glyph name="six" format="2">
	<advance width="396"/>
	<unicode hex="0036"/>
	<outline>
		<contour>
			<point x="69" y="113" type="line"/>
			<point x="69" y="209"/>
			<point x="103" y="288"/>
			<point x="173" y="387" type="curve" smooth="yes"/>
			<point x="200" y="425"/>
			<point x="246" y="471"/>
			<point x="321" y="523" type="curve" smooth="yes"/>
			<point x="332" y="530"/>
			<point x="336" y="540"/>
			<point x="336" y="548" type="curve" smooth="yes"/>
			<point x="335" y="559"/>
			<point x="327" y="568"/>
			<point x="314" y="568" type="curve" smooth="yes"/>
			<point x="308" y="568"/>
			<point x="301" y="566"/>
			<point x="293" y="562" type="curve" smooth="yes"/>
			<point x="246" y="535"/>
			<point x="163" y="460"/>
			<point x="129" y="412" type="curve" smooth="yes"/>
			<point x="61" y="316"/>
			<point x="20" y="213"/>
			<point x="20" y="113" type="curve"/>
		</contour>
		<contour>
			<point x="136" y="0" type="curve" smooth="yes"/>
			<point x="238" y="0"/>
			<point x="346" y="149"/>
			<point x="346" y="257" type="curve" smooth="yes"/>
			<point x="346" y="321"/>
			<point x="308" y="353"/>
			<point x="236" y="353" type="curve" smooth="yes"/>
			<point x="149" y="353"/>
			<point x="88" y="306"/>
			<point x="53" y="244" type="curve"/>
			<point x="20" y="114" type="line"/>
			<point x="20" y="53"/>
			<point x="68" y="0"/>
		</contour>
		<contour>
			<point x="134" y="50" type="curve" smooth="yes"/>
			<point x="101" y="50"/>
			<point x="70" y="78"/>
			<point x="70" y="135" type="curve" smooth="yes"/>
			<point x="70" y="215"/>
			<point x="131" y="303"/>
			<point x="234" y="303" type="curve" smooth="yes"/>
			<point x="275" y="303"/>
			<point x="296" y="289"/>
			<point x="296" y="251" type="curve" smooth="yes"/>
			<point x="296" y="173"/>
			<point x="204" y="50"/>
		</contour>
	</outline>
</glyph>
<glyph name="seven" format="2">
  <advance width="408"/>
  <unicode hex="0037"/>
  <outline>
    <contour>
      <point x="233" y="0" type="curve" smooth="yes"/>
      <point x="245" y="0"/>
      <point x="257" y="8"/>
      <point x="262" y="26" type="curve" smooth="yes"/>
      <point x="404" y="544" type="line" smooth="yes"/>
      <point x="407" y="556"/>
      <point x="400.0" y="568.0"/>
      <point x="381" y="568" type="curve" smooth="yes"/>
      <point x="134" y="568" type="line" smooth="yes"/>
      <point x="116" y="568"/>
      <point x="107" y="557"/>
      <point x="107" y="546" type="curve" smooth="yes"/>
      <point x="107" y="534"/>
      <point x="116" y="523"/>
      <point x="134" y="523" type="curve" smooth="yes"/>
      <point x="378" y="523" type="line"/>
      <point x="356" y="552" type="line"/>
      <point x="212" y="26" type="line" smooth="yes"/>
      <point x="207" y="8"/>
      <point x="220" y="0"/>
    </contour>
  </outline>
</glyph>
<glyph name="eight" format="2">
	<advance width="365"/>
	<unicode hex="0038"/>
	<outline>
		<contour>
			<point x="137" y="-4" type="curve" smooth="yes"/>
			<point x="241" y="-4"/>
			<point x="297" y="84"/>
			<point x="297" y="149" type="curve" smooth="yes"/>
			<point x="297" y="208"/>
			<point x="251" y="266"/>
			<point x="207" y="307" type="curve" smooth="yes"/>
			<point x="192" y="321" type="line"/>
			<point x="126" y="325" type="line"/>
			<point x="36" y="259"/>
			<point x="11" y="185"/>
			<point x="11" y="132" type="curve" smooth="yes"/>
			<point x="11" y="74"/>
			<point x="40" y="-4"/>
		</contour>
		<contour>
			<point x="170" y="273" type="line" smooth="yes"/>
			<point x="205" y="238"/>
			<point x="246" y="190"/>
			<point x="246" y="149" type="curve" smooth="yes"/>
			<point x="246" y="105"/>
			<point x="200" y="45"/>
			<point x="143" y="45" type="curve" smooth="yes"/>
			<point x="93" y="45"/>
			<point x="60" y="90"/>
			<point x="60" y="139" type="curve" smooth="yes"/>
			<point x="60" y="178"/>
			<point x="81" y="231"/>
			<point x="158" y="285" type="curve"/>
		</contour>
		<contour>
			<point x="194" y="312" type="line"/>
			<point x="275" y="368"/>
			<point x="356" y="431"/>
			<point x="356" y="488" type="curve" smooth="yes"/>
			<point x="356" y="542"/>
			<point x="282" y="568"/>
			<point x="223" y="568" type="curve" smooth="yes"/>
			<point x="150" y="568"/>
			<point x="63" y="529"/>
			<point x="63" y="442" type="curve" smooth="yes"/>
			<point x="63" y="386"/>
			<point x="100" y="350"/>
			<point x="126" y="323" type="curve"/>
			<point x="169" y="349" type="line"/>
			<point x="146" y="371"/>
			<point x="114" y="405"/>
			<point x="114" y="447" type="curve" smooth="yes"/>
			<point x="114" y="504"/>
			<point x="172" y="518"/>
			<point x="213" y="518" type="curve" smooth="yes"/>
			<point x="249" y="518"/>
			<point x="309" y="507"/>
			<point x="309" y="488" type="curve" smooth="yes"/>
			<point x="309" y="462"/>
			<point x="200" y="369"/>
			<point x="125" y="322" type="curve"/>
		</contour>
	</outline>
</glyph>
<glyph name="nine" format="2">
  <advance width="420"/>
  <unicode hex="0039"/>
  <outline>
    <contour>
      <point x="129" y="214" type="curve" smooth="yes"/>
      <point x="217" y="214"/>
      <point x="305" y="311"/>
      <point x="395" y="501" type="curve"/>
      <point x="359" y="518" type="line"/>
      <point x="275" y="349"/>
      <point x="203" y="264"/>
      <point x="140" y="264" type="curve" smooth="yes"/>
      <point x="124" y="264"/>
      <point x="119" y="277"/>
      <point x="119" y="296" type="curve" smooth="yes"/>
      <point x="119" y="433"/>
      <point x="180" y="518"/>
      <point x="278" y="518" type="curve" smooth="yes"/>
      <point x="359" y="518" type="line"/>
      <point x="274" y="24" type="line" smooth="yes"/>
      <point x="272" y="8"/>
      <point x="283" y="0"/>
      <point x="295" y="0" type="curve" smooth="yes"/>
      <point x="308" y="0"/>
      <point x="321" y="8"/>
      <point x="324" y="24" type="curve" smooth="yes"/>
      <point x="416" y="546" type="line" smooth="yes"/>
      <point x="418" y="558"/>
      <point x="412" y="568"/>
      <point x="400" y="568" type="curve"/>
      <point x="278" y="568" type="line" smooth="yes"/>
      <point x="149" y="568"/>
      <point x="69" y="462"/>
      <point x="69" y="291" type="curve" smooth="yes"/>
      <point x="69" y="243"/>
      <point x="89" y="214"/>
    </contour>
  </outline>
</glyph>
<glyph name="colon" format="2">
	<advance width="245"/>
	<unicode hex="003A"/>
	<outline>
		<contour>
			<point x="66" y="-30" type="curve" smooth="yes"/>
			<point x="88" y="-30"/>
			<point x="107" y="-11"/>
			<point x="107" y="11" type="curve" smooth="yes"/>
			<point x="107" y="32"/>
			<point x="88" y="50"/>
			<point x="66" y="50" type="curve" smooth="yes"/>
			<point x="44" y="50"/>
			<point x="27" y="32"/>
			<point x="27" y="11" type="curve" smooth="yes"/>
			<point x="27" y="-10"/>
			<point x="44" y="-30"/>
		</contour>
		<contour>
			<point x="102" y="175" type="curve" smooth="yes"/>
			<point x="123" y="175"/>
			<point x="142" y="195"/>
			<point x="142" y="216" type="curve" smooth="yes"/>
			<point x="142" y="238"/>
			<point x="123" y="255"/>
			<point x="102" y="255" type="curve" smooth="yes"/>
			<point x="80" y="255"/>
			<point x="63" y="237"/>
			<point x="63" y="216" type="curve" smooth="yes"/>
			<point x="63" y="196"/>
			<point x="80" y="175"/>
		</contour>
	</outline>
</glyph>
<glyph name="semicolon" format="2">
  <advance width="212"/>
  <unicode hex="003B"/>
  <outline>
    <contour>
      <point x="62" y="-102" type="curve" smooth="yes"/>
      <point x="73" y="-103"/>
      <point x="85" y="-95"/>
      <point x="87" y="-78" type="curve" smooth="yes"/>
      <point x="99" y="21" type="line" smooth="yes"/>
      <point x="101" y="39"/>
      <point x="89" y="49"/>
      <point x="76" y="50" type="curve" smooth="yes"/>
      <point x="62" y="52"/>
      <point x="50" y="45"/>
      <point x="48" y="28" type="curve" smooth="yes"/>
      <point x="38" y="-71" type="line" smooth="yes"/>
      <point x="36" y="-90"/>
      <point x="49" y="-101"/>
    </contour>
    <contour>
      <point x="102" y="274" type="curve" smooth="yes"/>
      <point x="125" y="274"/>
      <point x="142" y="292"/>
      <point x="142" y="315" type="curve" smooth="yes"/>
      <point x="142" y="337"/>
      <point x="125" y="354"/>
      <point x="102" y="354" type="curve" smooth="yes"/>
      <point x="79" y="354"/>
      <point x="62" y="337"/>
      <point x="62" y="315" type="curve" smooth="yes"/>
      <point x="62" y="292"/>
      <point x="79" y="274"/>
    </contour>
  </outline>
</glyph>
<glyph name="equal" format="2">
  <advance width="460"/>
  <unicode hex="003D"/>
  <outline>
    <contour>
      <point x="334" y="248" type="line" smooth="yes"/>
      <point x="352" y="248"/>
      <point x="361" y="260"/>
      <point x="361" y="271" type="curve" smooth="yes"/>
      <point x="361" y="282"/>
      <point x="352" y="293"/>
      <point x="334" y="293" type="curve" smooth="yes"/>
      <point x="107" y="293" type="line" smooth="yes"/>
      <point x="89" y="293"/>
      <point x="80" y="282"/>
      <point x="80" y="271" type="curve" smooth="yes"/>
      <point x="80" y="260"/>
      <point x="89" y="248"/>
      <point x="107" y="248" type="curve" smooth="yes"/>
    </contour>
    <contour>
      <point x="308" y="97" type="line" smooth="yes"/>
      <point x="326" y="97"/>
      <point x="335" y="108"/>
      <point x="335" y="120" type="curve" smooth="yes"/>
      <point x="335" y="131"/>
      <point x="326" y="142"/>
      <point x="308" y="142" type="curve" smooth="yes"/>
      <point x="81" y="142" type="line" smooth="yes"/>
      <point x="63" y="142"/>
      <point x="54" y="131"/>
      <point x="54" y="120" type="curve" smooth="yes"/>
      <point x="54" y="109"/>
      <point x="63" y="97"/>
      <point x="81" y="97" type="curve" smooth="yes"/>
    </contour>
  </outline>
</glyph>
<glyph name="greater" format="2">
	<advance width="430"/>
	<unicode hex="003E"/>
	<outline>
		<contour>
			<point x="308" y="179" type="line"/>
			<point x="282" y="216" type="line"/>
			<point x="67" y="103" type="line" smooth="yes"/>
			<point x="47" y="93"/>
			<point x="44" y="81"/>
			<point x="48" y="70" type="curve" smooth="yes"/>
			<point x="52" y="60"/>
			<point x="63" y="50"/>
			<point x="82" y="60" type="curve" smooth="yes"/>
		</contour>
		<contour>
			<point x="281" y="181" type="line" smooth="yes"/>
			<point x="296" y="171"/>
			<point x="307" y="176"/>
			<point x="314" y="186" type="curve" smooth="yes"/>
			<point x="322" y="197"/>
			<point x="322" y="207"/>
			<point x="307" y="217" type="curve" smooth="yes"/>
			<point x="130" y="330" type="line" smooth="yes"/>
			<point x="114" y="340"/>
			<point x="101" y="339"/>
			<point x="93" y="329" type="curve" smooth="yes"/>
			<point x="85" y="318"/>
			<point x="88" y="304"/>
			<point x="103" y="294" type="curve" smooth="yes"/>
		</contour>
	</outline>
</glyph>
<glyph name="question" format="2">
	<advance width="487"/>
	<unicode hex="003F"/>
	<outline>
		<contour>
			<point x="207" y="272" type="line"/>
			<point x="363" y="272"/>
			<point x="431" y="364"/>
			<point x="456" y="503" type="curve" smooth="yes"/>
			<point x="470" y="582"/>
			<point x="402" y="654"/>
			<point x="311" y="654" type="curve" smooth="yes"/>
			<point x="196" y="654"/>
			<point x="132" y="590"/>
			<point x="115" y="495" type="curve" smooth="yes"/>
			<point x="111" y="473"/>
			<point x="116" y="460"/>
			<point x="127" y="457" type="curve" smooth="yes"/>
			<point x="140" y="454"/>
			<point x="160" y="463"/>
			<point x="164" y="485" type="curve" smooth="yes"/>
			<point x="174" y="542"/>
			<point x="212" y="604"/>
			<point x="297" y="604" type="curve" smooth="yes"/>
			<point x="363" y="604"/>
			<point x="417" y="568"/>
			<point x="406" y="507" type="curve" smooth="yes"/>
			<point x="398" y="461"/>
			<point x="374" y="322"/>
			<point x="212" y="322" type="curve"/>
		</contour>
		<contour>
			<point x="157" y="-24" type="curve" smooth="yes"/>
			<point x="179" y="-24"/>
			<point x="198" y="-6"/>
			<point x="198" y="14" type="curve" smooth="yes"/>
			<point x="198" y="37"/>
			<point x="180" y="55"/>
			<point x="157" y="55" type="curve" smooth="yes"/>
			<point x="136" y="55"/>
			<point x="119" y="36"/>
			<point x="119" y="14" type="curve" smooth="yes"/>
			<point x="119" y="-5"/>
			<point x="136" y="-24"/>
		</contour>
		<contour>
			<point x="187" y="175" type="curve" smooth="yes"/>
			<point x="200" y="173"/>
			<point x="214" y="180"/>
			<point x="218" y="202" type="curve" smooth="yes"/>
			<point x="236" y="303" type="line" smooth="yes"/>
			<point x="237" y="310"/>
			<point x="230" y="322"/>
			<point x="210" y="322" type="curve" smooth="yes"/>
			<point x="199" y="322"/>
			<point x="187" y="314"/>
			<point x="185" y="303" type="curve" smooth="yes"/>
			<point x="167" y="202" type="line" smooth="yes"/>
			<point x="165" y="188"/>
			<point x="175" y="178"/>
		</contour>
	</outline>
</glyph>
<glyph name="at" format="2">
  <advance width="675"/>
  <unicode hex="0040"/>
  <outline>
    <contour>
      <point x="270" y="52" type="curve" smooth="yes"/>
      <point x="350" y="52"/>
      <point x="397" y="126"/>
      <point x="424" y="234" type="curve" smooth="yes"/>
      <point x="450" y="338"/>
      <point x="437" y="406"/>
      <point x="370" y="406" type="curve" smooth="yes"/>
      <point x="290" y="406"/>
      <point x="223" y="332"/>
      <point x="196" y="224" type="curve" smooth="yes"/>
      <point x="170" y="120"/>
      <point x="203" y="52"/>
    </contour>
    <contour>
      <point x="281" y="97" type="curve" smooth="yes"/>
      <point x="241" y="97"/>
      <point x="227" y="137"/>
      <point x="246" y="215" type="curve" smooth="yes"/>
      <point x="267" y="300"/>
      <point x="311" y="361"/>
      <point x="359" y="361" type="curve" smooth="yes"/>
      <point x="399" y="361"/>
      <point x="413" y="321"/>
      <point x="394" y="243" type="curve" smooth="yes"/>
      <point x="373" y="158"/>
      <point x="329" y="97"/>
    </contour>
    <contour>
      <point x="266" y="-80" type="curve" smooth="yes"/>
      <point x="307" y="-80"/>
      <point x="356" y="-68"/>
      <point x="386" y="-60" type="curve" smooth="yes"/>
      <point x="406" y="-55"/>
      <point x="410" y="-41"/>
      <point x="407" y="-29" type="curve" smooth="yes"/>
      <point x="402" y="-13"/>
      <point x="383" y="-12"/>
      <point x="371" y="-16" type="curve" smooth="yes"/>
      <point x="341" y="-25"/>
      <point x="298" y="-35"/>
      <point x="263" y="-35" type="curve" smooth="yes"/>
      <point x="142" y="-35"/>
      <point x="73" y="77"/>
      <point x="107" y="214" type="curve" smooth="yes"/>
      <point x="149" y="382"/>
      <point x="259" y="481"/>
      <point x="389" y="481" type="curve" smooth="yes"/>
      <point x="511" y="481"/>
      <point x="580" y="385"/>
      <point x="548" y="250" type="curve" smooth="yes"/>
      <point x="529" y="172"/>
      <point x="475" y="97"/>
      <point x="435" y="97" type="curve" smooth="yes"/>
      <point x="419" y="97"/>
      <point x="417" y="131"/>
      <point x="431" y="185" type="curve" smooth="yes"/>
      <point x="479" y="374" type="line" smooth="yes"/>
      <point x="483" y="390"/>
      <point x="479" y="402"/>
      <point x="462" y="402" type="curve" smooth="yes"/>
      <point x="443" y="402"/>
      <point x="433" y="395"/>
      <point x="428" y="377" type="curve" smooth="yes"/>
      <point x="382" y="196" type="line" smooth="yes"/>
      <point x="359" y="107"/>
      <point x="379" y="52"/>
      <point x="430" y="52" type="curve" smooth="yes"/>
      <point x="493" y="52"/>
      <point x="572" y="146"/>
      <point x="598" y="251" type="curve" smooth="yes"/>
      <point x="637" y="409"/>
      <point x="548" y="526"/>
      <point x="391" y="526" type="curve" smooth="yes"/>
      <point x="234" y="526"/>
      <point x="104" y="410"/>
      <point x="57" y="223" type="curve" smooth="yes"/>
      <point x="14" y="49"/>
      <point x="106" y="-80"/>
    </contour>
  </outline>
</glyph>
<glyph name="A" format="2">
  <advance width="479"/>
  <unicode hex="0041"/>
  <outline>
    <contour>
      <point x="-1" y="0" type="curve" smooth="yes"/>
      <point x="19" y="0"/>
      <point x="24" y="7"/>
      <point x="33" y="25" type="curve" smooth="yes"/>
      <point x="278" y="504" type="line"/>
      <point x="310" y="576" type="line"/>
      <point x="310" y="500" type="line"/>
      <point x="348" y="24" type="line" smooth="yes"/>
      <point x="349" y="14"/>
      <point x="352" y="0"/>
      <point x="374" y="0" type="curve"/>
      <point x="392" y="0"/>
      <point x="398" y="11"/>
      <point x="397" y="26" type="curve"/>
      <point x="345" y="631" type="line" smooth="yes"/>
      <point x="344" y="641"/>
      <point x="338" y="650"/>
      <point x="321" y="650" type="curve" smooth="yes"/>
      <point x="299" y="650"/>
      <point x="298" y="639"/>
      <point x="291" y="625" type="curve" smooth="yes"/>
      <point x="-18" y="32" type="line" smooth="yes"/>
      <point x="-28" y="12"/>
      <point x="-16" y="0"/>
    </contour>
    <contour>
      <point x="153" y="304" type="line"/>
      <point x="349" y="304" type="line"/>
      <point x="344" y="347" type="line"/>
      <point x="175" y="347" type="line"/>
    </contour>
  </outline>
</glyph>
<glyph name="B" format="2">
  <advance width="485"/>
  <unicode hex="0042"/>
  <outline>
    <contour>
      <point x="35" y="0" type="curve" smooth="yes"/>
      <point x="317.0" y="0.0"/>
      <point x="398" y="53"/>
      <point x="414" y="163" type="curve" smooth="yes"/>
      <point x="431" y="279"/>
      <point x="320" y="359"/>
      <point x="97" y="359" type="curve"/>
      <point x="89" y="320" type="line"/>
      <point x="296" y="320"/>
      <point x="376" y="248"/>
      <point x="365" y="169" type="curve" smooth="yes"/>
      <point x="352" y="73"/>
      <point x="246" y="47"/>
      <point x="69" y="46" type="curve"/>
      <point x="167" y="604" type="line"/>
      <point x="320" y="603"/>
      <point x="412" y="568"/>
      <point x="401" y="479" type="curve" smooth="yes"/>
      <point x="391" y="399"/>
      <point x="355" y="359"/>
      <point x="101" y="359" type="curve"/>
      <point x="95" y="327" type="line"/>
      <point x="384" y="327"/>
      <point x="437" y="373"/>
      <point x="451" y="477" type="curve" smooth="yes"/>
      <point x="467" y="595"/>
      <point x="364" y="650"/>
      <point x="149" y="650" type="curve"/>
      <point x="132" y="650"/>
      <point x="124" y="643"/>
      <point x="120" y="623" type="curve" smooth="yes"/>
      <point x="16" y="31" type="line" smooth="yes"/>
      <point x="13" y="16"/>
      <point x="21" y="0.0"/>
    </contour>
  </outline>
</glyph>
<glyph name="C" format="2">
  <advance width="521"/>
  <unicode hex="0043"/>
  <outline>
    <contour>
      <point x="210" y="0" type="curve" smooth="yes"/>
      <point x="296" y="0"/>
      <point x="363" y="45"/>
      <point x="420" y="108" type="curve" smooth="yes"/>
      <point x="445" y="135"/>
      <point x="447" y="147"/>
      <point x="446" y="154" type="curve" smooth="yes"/>
      <point x="444" y="166"/>
      <point x="435" y="172"/>
      <point x="423" y="172" type="curve" smooth="yes"/>
      <point x="407" y="172"/>
      <point x="401" y="155"/>
      <point x="381" y="137" type="curve" smooth="yes"/>
      <point x="326" y="85"/>
      <point x="276" y="46"/>
      <point x="211" y="46" type="curve" smooth="yes"/>
      <point x="139" y="46"/>
      <point x="65" y="136"/>
      <point x="94" y="304" type="curve" smooth="yes"/>
      <point x="114" y="419"/>
      <point x="162" y="604"/>
      <point x="337" y="604" type="curve" smooth="yes"/>
      <point x="383" y="604"/>
      <point x="432" y="583"/>
      <point x="477" y="536" type="curve" smooth="yes"/>
      <point x="490" y="523"/>
      <point x="504" y="526"/>
      <point x="512" y="535" type="curve" smooth="yes"/>
      <point x="520" y="544"/>
      <point x="518" y="560"/>
      <point x="509" y="569" type="curve" smooth="yes"/>
      <point x="460" y="620"/>
      <point x="400" y="650"/>
      <point x="338" y="650" type="curve" smooth="yes"/>
      <point x="126" y="650"/>
      <point x="69" y="447"/>
      <point x="44" y="305" type="curve" smooth="yes"/>
      <point x="9" y="108"/>
      <point x="114" y="0"/>
    </contour>
  </outline>
</glyph>
<glyph name="D" format="2">
  <advance width="525"/>
  <unicode hex="0044"/>
  <outline>
    <contour>
      <point x="38" y="0" type="curve" smooth="yes"/>
      <point x="102" y="0" type="line" smooth="yes"/>
      <point x="294" y="0"/>
      <point x="456" y="122"/>
      <point x="485" y="344" type="curve" smooth="yes"/>
      <point x="511" y="543"/>
      <point x="370.0" y="650.0"/>
      <point x="185" y="650" type="curve" smooth="yes"/>
      <point x="149" y="650" type="line" smooth="yes"/>
      <point x="128.0" y="650.0"/>
      <point x="123" y="639"/>
      <point x="120" y="623" type="curve" smooth="yes"/>
      <point x="15" y="27" type="line" smooth="yes"/>
      <point x="12" y="12"/>
      <point x="20.0" y="0.0"/>
    </contour>
    <contour>
      <point x="70" y="46" type="line"/>
      <point x="167" y="604" type="line"/>
      <point x="189" y="604" type="line" smooth="yes"/>
      <point x="342" y="604"/>
      <point x="454" y="512"/>
      <point x="435" y="351" type="curve" smooth="yes"/>
      <point x="411" y="149"/>
      <point x="264" y="46"/>
      <point x="102" y="46" type="curve" smooth="yes"/>
    </contour>
  </outline>
</glyph>
<glyph name="E" format="2">
  <advance width="507"/>
  <unicode hex="0045"/>
  <outline>
    <contour>
      <point x="38" y="0" type="curve" smooth="yes"/>
      <point x="373" y="0" type="line" smooth="yes"/>
      <point x="393" y="0"/>
      <point x="399" y="14"/>
      <point x="399" y="26" type="curve" smooth="yes"/>
      <point x="399" y="38"/>
      <point x="393" y="50"/>
      <point x="373" y="50" type="curve" smooth="yes"/>
      <point x="70" y="50" type="line"/>
      <point x="167" y="600" type="line"/>
      <point x="481" y="600" type="line" smooth="yes"/>
      <point x="501" y="600"/>
      <point x="507" y="613"/>
      <point x="507" y="625" type="curve" smooth="yes"/>
      <point x="507" y="637"/>
      <point x="501" y="650"/>
      <point x="481" y="650" type="curve"/>
      <point x="150" y="650" type="line" smooth="yes"/>
      <point x="128.0" y="650.0"/>
      <point x="123" y="639"/>
      <point x="120" y="623" type="curve" smooth="yes"/>
      <point x="15" y="27" type="line" smooth="yes"/>
      <point x="12" y="12"/>
      <point x="20.0" y="0.0"/>
    </contour>
    <contour>
      <point x="90" y="304" type="line"/>
      <point x="399" y="304" type="line" smooth="yes"/>
      <point x="419" y="304"/>
      <point x="425" y="315"/>
      <point x="425" y="327" type="curve" smooth="yes"/>
      <point x="425" y="339"/>
      <point x="419" y="350"/>
      <point x="399" y="350" type="curve" smooth="yes"/>
      <point x="98" y="350" type="line"/>
    </contour>
  </outline>
</glyph>
<glyph name="F" format="2">
  <advance width="507"/>
  <unicode hex="0046"/>
  <outline>
    <contour>
      <point x="36" y="0" type="curve" smooth="yes"/>
      <point x="58" y="0"/>
      <point x="62" y="15"/>
      <point x="64" y="25" type="curve" smooth="yes"/>
      <point x="165" y="600" type="line"/>
      <point x="479" y="600" type="line" smooth="yes"/>
      <point x="499" y="600"/>
      <point x="505" y="613"/>
      <point x="505" y="625" type="curve" smooth="yes"/>
      <point x="505" y="637"/>
      <point x="499.0" y="650.0"/>
      <point x="479" y="650" type="curve" smooth="yes"/>
      <point x="148" y="650" type="line" smooth="yes"/>
      <point x="126" y="650"/>
      <point x="121" y="639"/>
      <point x="118" y="623" type="curve" smooth="yes"/>
      <point x="13" y="27" type="line" smooth="yes"/>
      <point x="10" y="12"/>
      <point x="18" y="0"/>
    </contour>
    <contour>
      <point x="86" y="304" type="line"/>
      <point x="396" y="304" type="line" smooth="yes"/>
      <point x="416" y="304"/>
      <point x="422" y="315"/>
      <point x="422" y="327" type="curve" smooth="yes"/>
      <point x="422" y="339"/>
      <point x="416" y="350"/>
      <point x="396" y="350" type="curve" smooth="yes"/>
      <point x="93" y="350" type="line"/>
    </contour>
  </outline>
</glyph>
<glyph name="G" format="2">
  <advance width="527"/>
  <unicode hex="0047"/>
  <outline>
    <contour>
      <point x="210" y="0" type="curve" smooth="yes"/>
      <point x="272" y="0"/>
      <point x="335" y="42"/>
      <point x="415" y="169" type="curve"/>
      <point x="396" y="176" type="line"/>
      <point x="371" y="27" type="line" smooth="yes"/>
      <point x="369" y="15"/>
      <point x="372" y="1"/>
      <point x="392" y="0" type="curve" smooth="yes"/>
      <point x="415" y="-1"/>
      <point x="420" y="16"/>
      <point x="422" y="27" type="curve" smooth="yes"/>
      <point x="461" y="253" type="line" smooth="yes"/>
      <point x="464" y="270"/>
      <point x="460" y="280"/>
      <point x="441" y="280" type="curve"/>
      <point x="421" y="280"/>
      <point x="411" y="266"/>
      <point x="400" y="240" type="curve" smooth="yes"/>
      <point x="347" y="119"/>
      <point x="276" y="46"/>
      <point x="211" y="46" type="curve" smooth="yes"/>
      <point x="144" y="46"/>
      <point x="65" y="136"/>
      <point x="94" y="304" type="curve" smooth="yes"/>
      <point x="114" y="419"/>
      <point x="162" y="604"/>
      <point x="337" y="604" type="curve" smooth="yes"/>
      <point x="383" y="604"/>
      <point x="429" y="584"/>
      <point x="474" y="537" type="curve" smooth="yes"/>
      <point x="487" y="524"/>
      <point x="501" y="527"/>
      <point x="509" y="536" type="curve" smooth="yes"/>
      <point x="517" y="545"/>
      <point x="515" y="561"/>
      <point x="506" y="570" type="curve" smooth="yes"/>
      <point x="457" y="621"/>
      <point x="400" y="650"/>
      <point x="338" y="650" type="curve" smooth="yes"/>
      <point x="126" y="650"/>
      <point x="69" y="447"/>
      <point x="44" y="305" type="curve" smooth="yes"/>
      <point x="9" y="108"/>
      <point x="114" y="0"/>
    </contour>
  </outline>
</glyph>
<glyph name="H" format="2">
  <advance width="517"/>
  <unicode hex="0048"/>
  <outline>
    <contour>
      <point x="38" y="0" type="curve" smooth="yes"/>
      <point x="60" y="0"/>
      <point x="64" y="15"/>
      <point x="66" y="25" type="curve" smooth="yes"/>
      <point x="170" y="619" type="line" smooth="yes"/>
      <point x="173" y="637"/>
      <point x="167" y="650"/>
      <point x="150" y="650" type="curve" smooth="yes"/>
      <point x="131" y="650"/>
      <point x="123" y="639"/>
      <point x="120" y="623" type="curve" smooth="yes"/>
      <point x="15" y="27" type="line" smooth="yes"/>
      <point x="12" y="12"/>
      <point x="20" y="0"/>
    </contour>
    <contour>
      <point x="106" y="304" type="line"/>
      <point x="408" y="304" type="line"/>
      <point x="416" y="350" type="line"/>
      <point x="114" y="350" type="line"/>
    </contour>
    <contour>
      <point x="374" y="0" type="curve" smooth="yes"/>
      <point x="393" y="0"/>
      <point x="399" y="13"/>
      <point x="401" y="22" type="curve" smooth="yes"/>
      <point x="506" y="621" type="line" smooth="yes"/>
      <point x="509" y="638"/>
      <point x="503" y="650"/>
      <point x="483" y="650" type="curve" smooth="yes"/>
      <point x="465" y="650"/>
      <point x="458" y="638"/>
      <point x="456" y="628" type="curve" smooth="yes"/>
      <point x="351" y="27" type="line" smooth="yes"/>
      <point x="349" y="15"/>
      <point x="351" y="0"/>
    </contour>
  </outline>
</glyph>
<glyph name="I" format="2">
  <advance width="274"/>
  <unicode hex="0049"/>
  <outline>
    <contour>
      <point x="62" y="25" type="line"/>
      <point x="113" y="25" type="line"/>
      <point x="217" y="619" type="line"/>
      <point x="166" y="620" type="line"/>
    </contour>
    <contour>
      <point x="41" y="0" type="curve" smooth="yes"/>
      <point x="130" y="0" type="line" smooth="yes"/>
      <point x="150" y="0"/>
      <point x="156" y="11"/>
      <point x="156" y="23" type="curve" smooth="yes"/>
      <point x="156" y="35"/>
      <point x="150" y="46"/>
      <point x="130" y="46" type="curve" smooth="yes"/>
      <point x="41" y="46" type="line" smooth="yes"/>
      <point x="21" y="46"/>
      <point x="15" y="35"/>
      <point x="15" y="23" type="curve" smooth="yes"/>
      <point x="15" y="11"/>
      <point x="21" y="0"/>
    </contour>
    <contour>
      <point x="149" y="604" type="curve" smooth="yes"/>
      <point x="238" y="604" type="line" smooth="yes"/>
      <point x="258" y="604"/>
      <point x="264" y="616"/>
      <point x="264" y="628" type="curve" smooth="yes"/>
      <point x="264" y="640"/>
      <point x="258" y="650"/>
      <point x="238" y="650" type="curve" smooth="yes"/>
      <point x="149" y="650" type="line" smooth="yes"/>
      <point x="129" y="650"/>
      <point x="123" y="640"/>
      <point x="123" y="628" type="curve" smooth="yes"/>
      <point x="123" y="616"/>
      <point x="129" y="604"/>
    </contour>
  </outline>
</glyph>
<glyph name="J" format="2">
  <advance width="590"/>
  <unicode hex="004A"/>
  <outline>
    <contour>
      <point x="40" y="0" type="curve" smooth="yes"/>
      <point x="71" y="0"/>
      <point x="161" y="4"/>
      <point x="180" y="7" type="curve" smooth="yes"/>
      <point x="316.0" y="27.0"/>
      <point x="342.91202132398143" y="148.16812083589468"/>
      <point x="369" y="296" type="curve" smooth="yes"/>
      <point x="428" y="625" type="line"/>
      <point x="377" y="625" type="line"/>
      <point x="319" y="301" type="line" smooth="yes"/>
      <point x="299.32952100500114" y="187.8947457787566"/>
      <point x="282" y="71"/>
      <point x="184" y="54" type="curve" smooth="yes"/>
      <point x="157" y="49"/>
      <point x="64" y="46"/>
      <point x="40" y="46" type="curve" smooth="yes"/>
      <point x="28" y="46"/>
      <point x="15" y="38"/>
      <point x="15" y="24" type="curve" smooth="yes"/>
      <point x="15" y="9"/>
      <point x="28" y="0"/>
    </contour>
    <contour>
      <point x="250" y="600" type="curve" smooth="yes"/>
      <point x="554" y="600" type="line" smooth="yes"/>
      <point x="574" y="600"/>
      <point x="580" y="613"/>
      <point x="580" y="625" type="curve" smooth="yes"/>
      <point x="580" y="637"/>
      <point x="574" y="650"/>
      <point x="554" y="650" type="curve" smooth="yes"/>
      <point x="250" y="650" type="line" smooth="yes"/>
      <point x="230" y="650"/>
      <point x="224" y="637"/>
      <point x="224" y="625" type="curve" smooth="yes"/>
      <point x="224" y="613"/>
      <point x="230" y="600"/>
    </contour>
  </outline>
</glyph>
<glyph name="K" format="2">
	<advance width="467"/>
	<unicode hex="004B"/>
	<outline>
		<contour>
			<point x="176" y="343" type="line"/>
			<point x="487" y="599" type="line" smooth="yes"/>
			<point x="499" y="609"/>
			<point x="504" y="619"/>
			<point x="506" y="628" type="curve" smooth="yes"/>
			<point x="507" y="640"/>
			<point x="499" y="650"/>
			<point x="486" y="650" type="curve" smooth="yes"/>
			<point x="478" y="651"/>
			<point x="467" y="647"/>
			<point x="455" y="637" type="curve" smooth="yes"/>
			<point x="118" y="360" type="line"/>
			<point x="118" y="348" type="line"/>
		</contour>
		<contour>
			<point x="375" y="0" type="curve" smooth="yes"/>
			<point x="385" y="0"/>
			<point x="395" y="6"/>
			<point x="398" y="17" type="curve" smooth="yes"/>
			<point x="400" y="24"/>
			<point x="398" y="32"/>
			<point x="391" y="42" type="curve" smooth="yes"/>
			<point x="174" y="354" type="line"/>
			<point x="118" y="356" type="line"/>
			<point x="119" y="345" type="line"/>
			<point x="346" y="19" type="line" smooth="yes"/>
			<point x="353" y="9"/>
			<point x="362" y="0"/>
		</contour>
		<contour>
			<point x="37" y="0" type="curve" smooth="yes"/>
			<point x="58" y="0"/>
			<point x="63" y="18"/>
			<point x="65" y="31" type="curve" smooth="yes"/>
			<point x="169" y="619" type="line" smooth="yes"/>
			<point x="172" y="637"/>
			<point x="168" y="650"/>
			<point x="149" y="650" type="curve" smooth="yes"/>
			<point x="129" y="650"/>
			<point x="122" y="639"/>
			<point x="119" y="623" type="curve" smooth="yes"/>
			<point x="14" y="32" type="line" smooth="yes"/>
			<point x="11" y="17"/>
			<point x="19" y="0"/>
		</contour>
	</outline>
</glyph>
<glyph name="L" format="2">
	<advance width="467"/>
	<unicode hex="004C"/>
	<outline>
		<contour>
			<point x="36" y="0" type="curve" smooth="yes"/>
			<point x="58" y="0"/>
			<point x="61" y="15"/>
			<point x="63" y="25" type="curve" smooth="yes"/>
			<point x="168" y="619" type="line" smooth="yes"/>
			<point x="171" y="637"/>
			<point x="168" y="650"/>
			<point x="148" y="650" type="curve" smooth="yes"/>
			<point x="128" y="650"/>
			<point x="121" y="639"/>
			<point x="118" y="623" type="curve" smooth="yes"/>
			<point x="13" y="27" type="line" smooth="yes"/>
			<point x="10" y="12"/>
			<point x="18" y="0"/>
		</contour>
		<contour>
			<point x="41" y="0" type="line"/>
			<point x="373" y="0" type="line" smooth="yes"/>
			<point x="391" y="0"/>
			<point x="399" y="14"/>
			<point x="399" y="26" type="curve" smooth="yes"/>
			<point x="399" y="38"/>
			<point x="391" y="50"/>
			<point x="373" y="50" type="curve" smooth="yes"/>
			<point x="60" y="50" type="line"/>
		</contour>
	</outline>
</glyph>
<glyph name="N" format="2">
  <advance width="517"/>
  <unicode hex="004E"/>
  <outline>
    <contour>
      <point x="38" y="0" type="curve" smooth="yes"/>
      <point x="60" y="0"/>
      <point x="64" y="16"/>
      <point x="66" y="28" type="curve" smooth="yes"/>
      <point x="162" y="577" type="line"/>
      <point x="147" y="575" type="line"/>
      <point x="350" y="18" type="line" smooth="yes"/>
      <point x="354" y="8"/>
      <point x="363.0" y="0.0"/>
      <point x="377" y="0" type="curve" smooth="yes"/>
      <point x="398.0" y="0.0"/>
      <point x="400" y="15"/>
      <point x="402" y="25" type="curve" smooth="yes"/>
      <point x="506" y="619" type="line" smooth="yes"/>
      <point x="509" y="637"/>
      <point x="506" y="650"/>
      <point x="487" y="650" type="curve" smooth="yes"/>
      <point x="467" y="650"/>
      <point x="460" y="639"/>
      <point x="457" y="623" type="curve" smooth="yes"/>
      <point x="361" y="83" type="line"/>
      <point x="376" y="85" type="line"/>
      <point x="180" y="630" type="line" smooth="yes"/>
      <point x="177" y="639"/>
      <point x="167.0" y="650.0"/>
      <point x="149" y="650" type="curve" smooth="yes"/>
      <point x="128.0" y="650.0"/>
      <point x="123" y="639"/>
      <point x="120" y="623" type="curve" smooth="yes"/>
      <point x="15" y="27" type="line" smooth="yes"/>
      <point x="12" y="12"/>
      <point x="20" y="0"/>
    </contour>
  </outline>
</glyph>
<glyph name="O" format="2">
	<advance width="510"/>
	<unicode hex="004F"/>
	<outline>
		<contour>
			<point x="209" y="0" type="curve" smooth="yes"/>
			<point x="381" y="0"/>
			<point x="458" y="256"/>
			<point x="481" y="387" type="curve" smooth="yes"/>
			<point x="510" y="551"/>
			<point x="457" y="650"/>
			<point x="315" y="650" type="curve" smooth="yes"/>
			<point x="137" y="650"/>
			<point x="61" y="467"/>
			<point x="37" y="329" type="curve" smooth="yes"/>
			<point x="9" y="167"/>
			<point x="36" y="0"/>
		</contour>
		<contour>
			<point x="208" y="46" type="curve" smooth="yes"/>
			<point x="75" y="46"/>
			<point x="65" y="202"/>
			<point x="86" y="319" type="curve" smooth="yes"/>
			<point x="102" y="406"/>
			<point x="164" y="604"/>
			<point x="310" y="604" type="curve" smooth="yes"/>
			<point x="443" y="604"/>
			<point x="451" y="495"/>
			<point x="431" y="381" type="curve" smooth="yes"/>
			<point x="412" y="271"/>
			<point x="324" y="46"/>
		</contour>
	</outline>
</glyph>
<glyph name="P" format="2">
  <advance width="497"/>
  <unicode hex="0050"/>
  <outline>
    <contour>
      <point x="38" y="0" type="curve" smooth="yes"/>
      <point x="60" y="0"/>
      <point x="63" y="15"/>
      <point x="65" y="25" type="curve" smooth="yes"/>
      <point x="167" y="604" type="line"/>
      <point x="364" y="602"/>
      <point x="441" y="556"/>
      <point x="431" y="481" type="curve" smooth="yes"/>
      <point x="416" y="367"/>
      <point x="269" y="350"/>
      <point x="97" y="350" type="curve"/>
      <point x="90" y="304" type="line"/>
      <point x="298" y="304"/>
      <point x="459" y="321"/>
      <point x="481" y="476" type="curve" smooth="yes"/>
      <point x="498.07943925233644" y="597.5654205607477"/>
      <point x="365.0000000000007" y="650.0"/>
      <point x="150" y="650" type="curve" smooth="yes"/>
      <point x="128" y="650"/>
      <point x="123" y="639"/>
      <point x="120" y="623" type="curve" smooth="yes"/>
      <point x="15" y="27" type="line" smooth="yes"/>
      <point x="12" y="12"/>
      <point x="20" y="0"/>
    </contour>
  </outline>
</glyph>
<glyph name="Q" format="2">
	<advance width="510"/>
	<unicode hex="0051"/>
	<outline>
		<contour>
			<point x="390" y="-77" type="curve" smooth="yes"/>
			<point x="404" y="-69"/>
			<point x="404" y="-50"/>
			<point x="396" y="-38" type="curve" smooth="yes"/>
			<point x="288" y="119" type="line" smooth="yes"/>
			<point x="278" y="133"/>
			<point x="260" y="140"/>
			<point x="246" y="128" type="curve" smooth="yes"/>
			<point x="234" y="119"/>
			<point x="236" y="107"/>
			<point x="247" y="91" type="curve" smooth="yes"/>
			<point x="351" y="-61" type="line" smooth="yes"/>
			<point x="361" y="-76"/>
			<point x="377" y="-84"/>
		</contour>
		<contour>
			<point x="209" y="0" type="curve" smooth="yes"/>
			<point x="381" y="0"/>
			<point x="458" y="256"/>
			<point x="481" y="387" type="curve" smooth="yes"/>
			<point x="510" y="551"/>
			<point x="457" y="650"/>
			<point x="315" y="650" type="curve" smooth="yes"/>
			<point x="137" y="650"/>
			<point x="61" y="467"/>
			<point x="37" y="329" type="curve" smooth="yes"/>
			<point x="9" y="167"/>
			<point x="36" y="0"/>
		</contour>
		<contour>
			<point x="208" y="46" type="curve" smooth="yes"/>
			<point x="75" y="46"/>
			<point x="65" y="202"/>
			<point x="86" y="319" type="curve" smooth="yes"/>
			<point x="102" y="406"/>
			<point x="164" y="604"/>
			<point x="310" y="604" type="curve" smooth="yes"/>
			<point x="443" y="604"/>
			<point x="451" y="495"/>
			<point x="431" y="381" type="curve" smooth="yes"/>
			<point x="412" y="271"/>
			<point x="324" y="46"/>
		</contour>
	</outline>
</glyph>
<glyph name="R" format="2">
  <advance width="467"/>
  <unicode hex="0052"/>
  <outline>
    <contour>
      <point x="36" y="0" type="curve" smooth="yes"/>
      <point x="58" y="0"/>
      <point x="62" y="16"/>
      <point x="65" y="31" type="curve" smooth="yes"/>
      <point x="165" y="604" type="line"/>
      <point x="349" y="602"/>
      <point x="440" y="558"/>
      <point x="429" y="481" type="curve" smooth="yes"/>
      <point x="413" y="368"/>
      <point x="265" y="350"/>
      <point x="94" y="350" type="curve"/>
      <point x="87" y="304" type="line"/>
      <point x="289" y="304"/>
      <point x="457" y="321"/>
      <point x="479" y="476" type="curve" smooth="yes"/>
      <point x="496.0783410138249" y="597.557603686636"/>
      <point x="366.0000000000013" y="650.0"/>
      <point x="148" y="650" type="curve" smooth="yes"/>
      <point x="126" y="650"/>
      <point x="121" y="639"/>
      <point x="118" y="623" type="curve" smooth="yes"/>
      <point x="14" y="33" type="line" smooth="yes"/>
      <point x="11" y="16"/>
      <point x="18" y="0"/>
    </contour>
    <contour>
      <point x="377" y="0" type="curve" smooth="yes"/>
      <point x="398.0" y="0.0"/>
      <point x="409" y="24"/>
      <point x="386" y="50" type="curve" smooth="yes"/>
      <point x="150" y="321" type="line"/>
      <point x="86" y="321" type="line"/>
      <point x="349" y="18" type="line" smooth="yes"/>
      <point x="360" y="5"/>
      <point x="369" y="0"/>
    </contour>
  </outline>
</glyph>
<glyph name="S" format="2">
  <advance width="435"/>
  <unicode hex="0053"/>
  <outline>
    <contour>
      <point x="150" y="0" type="curve" smooth="yes"/>
      <point x="283" y="0"/>
      <point x="365.0" y="75.0"/>
      <point x="365.0" y="196.0" type="curve" smooth="yes"/>
      <point x="365" y="259"/>
      <point x="319" y="318"/>
      <point x="248" y="368" type="curve" smooth="yes"/>
      <point x="174" y="419"/>
      <point x="129" y="450"/>
      <point x="129" y="497" type="curve" smooth="yes"/>
      <point x="129" y="563"/>
      <point x="192" y="604"/>
      <point x="293" y="604" type="curve" smooth="yes"/>
      <point x="362" y="604"/>
      <point x="378" y="584"/>
      <point x="384" y="547" type="curve" smooth="yes"/>
      <point x="386" y="534"/>
      <point x="406" y="531"/>
      <point x="418" y="534" type="curve" smooth="yes"/>
      <point x="433" y="538"/>
      <point x="433" y="552"/>
      <point x="431" y="562" type="curve" smooth="yes"/>
      <point x="419" y="626"/>
      <point x="379" y="650"/>
      <point x="294" y="650" type="curve" smooth="yes"/>
      <point x="162" y="650"/>
      <point x="80" y="590"/>
      <point x="80" y="494" type="curve" smooth="yes"/>
      <point x="80" y="424"/>
      <point x="137" y="386"/>
      <point x="208" y="335" type="curve" smooth="yes"/>
      <point x="287" y="279"/>
      <point x="315" y="237"/>
      <point x="315.0" y="189.0" type="curve" smooth="yes"/>
      <point x="315.0" y="101.0"/>
      <point x="252" y="46"/>
      <point x="150" y="46" type="curve" smooth="yes"/>
      <point x="92" y="46"/>
      <point x="62" y="66"/>
      <point x="54" y="103" type="curve" smooth="yes"/>
      <point x="51" y="116"/>
      <point x="37" y="121"/>
      <point x="25" y="118" type="curve" smooth="yes"/>
      <point x="10" y="114"/>
      <point x="5" y="98"/>
      <point x="7" y="88" type="curve" smooth="yes"/>
      <point x="17" y="30"/>
      <point x="71" y="0"/>
    </contour>
  </outline>
</glyph>
<glyph name="T" format="2">
	<advance width="518"/>
	<unicode hex="0054"/>
	<outline>
		<contour>
			<point x="230" y="0" type="curve" smooth="yes"/>
			<point x="252" y="0"/>
			<point x="255" y="15"/>
			<point x="257" y="25" type="curve" smooth="yes"/>
			<point x="361" y="619" type="line"/>
			<point x="310" y="619" type="line"/>
			<point x="207" y="27" type="line" smooth="yes"/>
			<point x="204" y="12"/>
			<point x="212" y="0"/>
		</contour>
		<contour>
			<point x="116" y="600" type="curve" smooth="yes"/>
			<point x="560" y="600" type="line" smooth="yes"/>
			<point x="580" y="600"/>
			<point x="586" y="613"/>
			<point x="586" y="625" type="curve" smooth="yes"/>
			<point x="586" y="637"/>
			<point x="580" y="650"/>
			<point x="560" y="650" type="curve" smooth="yes"/>
			<point x="116" y="650" type="line" smooth="yes"/>
			<point x="96" y="650"/>
			<point x="90" y="637"/>
			<point x="90" y="625" type="curve" smooth="yes"/>
			<point x="90" y="613"/>
			<point x="96" y="600"/>
		</contour>
	</outline>
</glyph>
<glyph name="U" format="2">
  <advance width="517"/>
  <unicode hex="0055"/>
  <outline>
    <contour>
      <point x="109" y="-4" type="curve" smooth="yes"/>
      <point x="218" y="-4"/>
      <point x="365" y="174"/>
      <point x="439" y="417" type="curve"/>
      <point x="438" y="520" type="line"/>
      <point x="354" y="246"/>
      <point x="214" y="42"/>
      <point x="117" y="42" type="curve" smooth="yes"/>
      <point x="70" y="42"/>
      <point x="80" y="116"/>
      <point x="92" y="180" type="curve" smooth="yes"/>
      <point x="172" y="622" type="line" smooth="yes"/>
      <point x="175" y="636"/>
      <point x="166" y="649"/>
      <point x="151" y="650" type="curve" smooth="yes"/>
      <point x="135" y="650"/>
      <point x="124" y="636"/>
      <point x="121" y="620" type="curve" smooth="yes"/>
      <point x="42" y="183" type="line" smooth="yes"/>
      <point x="18" y="52"/>
      <point x="50" y="-4"/>
    </contour>
    <contour>
      <point x="374" y="-1" type="curve" smooth="yes"/>
      <point x="386" y="-1"/>
      <point x="398" y="7"/>
      <point x="401" y="22" type="curve" smooth="yes"/>
      <point x="507" y="624" type="line" smooth="yes"/>
      <point x="510" y="639"/>
      <point x="503" y="650"/>
      <point x="483" y="650" type="curve" smooth="yes"/>
      <point x="465" y="650"/>
      <point x="458" y="638"/>
      <point x="456" y="626" type="curve" smooth="yes"/>
      <point x="351" y="27" type="line" smooth="yes"/>
      <point x="348" y="8"/>
      <point x="360" y="-1"/>
    </contour>
  </outline>
</glyph>
<glyph name="W" format="2">
  <advance width="788"/>
  <unicode hex="0057"/>
  <outline>
    <contour>
      <point x="147" y="0.0" type="curve" smooth="yes"/>
      <point x="164.0" y="0.0"/>
      <point x="173" y="15"/>
      <point x="178" y="26" type="curve" smooth="yes"/>
      <point x="445" y="570" type="line"/>
      <point x="430" y="573" type="line"/>
      <point x="462" y="19" type="line" smooth="yes"/>
      <point x="463" y="6"/>
      <point x="471" y="0"/>
      <point x="488" y="0" type="curve" smooth="yes"/>
      <point x="501.0" y="0.0"/>
      <point x="510" y="8"/>
      <point x="518" y="25" type="curve" smooth="yes"/>
      <point x="810" y="618" type="line" smooth="yes"/>
      <point x="820" y="638"/>
      <point x="808" y="650.0"/>
      <point x="790" y="650.0" type="curve" smooth="yes"/>
      <point x="775" y="650.0"/>
      <point x="766" y="641"/>
      <point x="758" y="625" type="curve" smooth="yes"/>
      <point x="494" y="89" type="line"/>
      <point x="509" y="86" type="line"/>
      <point x="477" y="626" type="line" smooth="yes"/>
      <point x="476" y="636"/>
      <point x="471" y="650"/>
      <point x="447" y="650" type="curve" smooth="yes"/>
      <point x="431.0" y="650.0"/>
      <point x="421" y="633"/>
      <point x="417" y="626" type="curve" smooth="yes"/>
      <point x="152" y="85" type="line"/>
      <point x="167" y="82" type="line"/>
      <point x="136" y="626" type="line" smooth="yes"/>
      <point x="135" y="636"/>
      <point x="131" y="650"/>
      <point x="109" y="650" type="curve"/>
      <point x="91" y="650"/>
      <point x="85" y="639"/>
      <point x="86" y="624" type="curve" smooth="yes"/>
      <point x="119" y="28" type="line" smooth="yes"/>
      <point x="120" y="12"/>
      <point x="130" y="0"/>
    </contour>
  </outline>
</glyph>
<glyph name="X" format="2">
	<advance width="487"/>
	<unicode hex="0058"/>
	<outline>
		<contour>
			<point x="20" y="6" type="curve" smooth="yes"/>
			<point x="31" y="-3"/>
			<point x="50" y="-4"/>
			<point x="61" y="11" type="curve" smooth="yes"/>
			<point x="495" y="609" type="line" smooth="yes"/>
			<point x="506" y="624"/>
			<point x="504" y="638"/>
			<point x="495" y="645" type="curve" smooth="yes"/>
			<point x="485" y="653"/>
			<point x="466" y="652"/>
			<point x="455" y="637" type="curve" smooth="yes"/>
			<point x="18" y="38" type="line" smooth="yes"/>
			<point x="9" y="26"/>
			<point x="11" y="13"/>
		</contour>
		<contour>
			<point x="386" y="3" type="curve" smooth="yes"/>
			<point x="396" y="8"/>
			<point x="402" y="20"/>
			<point x="396" y="35" type="curve" smooth="yes"/>
			<point x="172" y="631" type="line" smooth="yes"/>
			<point x="165" y="650"/>
			<point x="146" y="654"/>
			<point x="134" y="649" type="curve" smooth="yes"/>
			<point x="122" y="645"/>
			<point x="117" y="631"/>
			<point x="124" y="613" type="curve" smooth="yes"/>
			<point x="346" y="19" type="line" smooth="yes"/>
			<point x="353" y="0"/>
			<point x="373" y="-3"/>
		</contour>
	</outline>
</glyph>
<glyph name="Y" format="2">
  <advance width="447"/>
  <unicode hex="0059"/>
  <outline>
    <contour>
      <point x="174" y="0" type="curve" smooth="yes"/>
      <point x="196" y="0"/>
      <point x="200" y="15"/>
      <point x="202" y="25" type="curve" smooth="yes"/>
      <point x="254" y="322" type="line"/>
      <point x="465" y="609" type="line" smooth="yes"/>
      <point x="470" y="616"/>
      <point x="473" y="623"/>
      <point x="473" y="629" type="curve" smooth="yes"/>
      <point x="473.0" y="640.3277214064378"/>
      <point x="461" y="650.0"/>
      <point x="450" y="650" type="curve" smooth="yes"/>
      <point x="440" y="650"/>
      <point x="431" y="647"/>
      <point x="424" y="637" type="curve" smooth="yes"/>
      <point x="220" y="356" type="line"/>
      <point x="245" y="352" type="line"/>
      <point x="138" y="630" type="line" smooth="yes"/>
      <point x="134" y="641"/>
      <point x="125" y="650"/>
      <point x="110" y="650" type="curve" smooth="yes"/>
      <point x="98" y="650"/>
      <point x="87" y="640"/>
      <point x="87" y="630" type="curve" smooth="yes"/>
      <point x="87" y="624"/>
      <point x="88" y="621"/>
      <point x="91" y="613" type="curve" smooth="yes"/>
      <point x="203" y="323" type="line"/>
      <point x="151" y="27" type="line" smooth="yes"/>
      <point x="148" y="12"/>
      <point x="156" y="0"/>
    </contour>
  </outline>
</glyph>
<glyph name="Z" format="2">
	<advance width="516"/>
	<unicode hex="005A"/>
	<outline>
		<contour>
			<point x="46" y="0" type="curve" smooth="yes"/>
			<point x="52" y="0"/>
			<point x="58" y="7"/>
			<point x="61" y="11" type="curve" smooth="yes"/>
			<point x="497" y="608" type="line" smooth="yes"/>
			<point x="505" y="619"/>
			<point x="507" y="630"/>
			<point x="503" y="638" type="curve" smooth="yes"/>
			<point x="498" y="645"/>
			<point x="487" y="650"/>
			<point x="476" y="650" type="curve" smooth="yes"/>
			<point x="469" y="650"/>
			<point x="462" y="644"/>
			<point x="457" y="638" type="curve" smooth="yes"/>
			<point x="19" y="39" type="line" smooth="yes"/>
			<point x="14" y="32"/>
			<point x="10" y="22"/>
			<point x="15" y="13" type="curve" smooth="yes"/>
			<point x="19" y="6"/>
			<point x="29" y="0"/>
		</contour>
		<contour>
			<point x="39" y="0" type="line"/>
			<point x="372" y="0" type="line" smooth="yes"/>
			<point x="392" y="0"/>
			<point x="398" y="13"/>
			<point x="398" y="25" type="curve" smooth="yes"/>
			<point x="398" y="37"/>
			<point x="392" y="50"/>
			<point x="372" y="50" type="curve" smooth="yes"/>
			<point x="78" y="50" type="line"/>
		</contour>
		<contour>
			<point x="437" y="600" type="line"/>
			<point x="480" y="650" type="line"/>
			<point x="145" y="650" type="line" smooth="yes"/>
			<point x="125" y="650"/>
			<point x="119" y="637"/>
			<point x="119" y="625" type="curve" smooth="yes"/>
			<point x="119" y="613"/>
			<point x="125" y="600"/>
			<point x="145" y="600" type="curve" smooth="yes"/>
		</contour>
	</outline>
</glyph>
<glyph name="bracketleft" format="2">
  <advance width="325"/>
  <unicode hex="005B"/>
  <outline>
    <contour>
      <point x="129" y="-300" type="line" smooth="yes"/>
      <point x="146" y="-300"/>
      <point x="155" y="-288"/>
      <point x="155" y="-277" type="curve" smooth="yes"/>
      <point x="155" y="-266"/>
      <point x="147" y="-255"/>
      <point x="129" y="-255" type="curve" smooth="yes"/>
      <point x="16" y="-255" type="line"/>
      <point x="168" y="605" type="line"/>
      <point x="288" y="605" type="line" smooth="yes"/>
      <point x="305" y="605"/>
      <point x="314" y="616"/>
      <point x="315" y="627" type="curve" smooth="yes"/>
      <point x="316" y="638"/>
      <point x="307" y="650"/>
      <point x="288" y="650" type="curve" smooth="yes"/>
      <point x="150" y="650" type="line" smooth="yes"/>
      <point x="131" y="650"/>
      <point x="123" y="639"/>
      <point x="120" y="623" type="curve" smooth="yes"/>
      <point x="-38" y="-273" type="line" smooth="yes"/>
      <point x="-41" y="-287"/>
      <point x="-34" y="-300"/>
      <point x="-16" y="-300" type="curve" smooth="yes"/>
    </contour>
  </outline>
</glyph>
<glyph name="backslash" format="2">
	<advance width="384"/>
	<unicode hex="005C"/>
	<outline>
		<contour>
			<point x="341" y="0" type="curve" smooth="yes"/>
			<point x="356" y="0"/>
			<point x="370" y="13"/>
			<point x="362" y="31" type="curve" smooth="yes"/>
			<point x="105" y="627" type="line" smooth="yes"/>
			<point x="98" y="644"/>
			<point x="87" y="650"/>
			<point x="76" y="650" type="curve" smooth="yes"/>
			<point x="61" y="650"/>
			<point x="46" y="637"/>
			<point x="55" y="616" type="curve" smooth="yes"/>
			<point x="312" y="20" type="line" smooth="yes"/>
			<point x="318" y="5"/>
			<point x="330" y="0"/>
		</contour>
	</outline>
</glyph>
<glyph name="bracketright" format="2">
  <advance width="324"/>
  <unicode hex="005D"/>
  <outline>
    <contour>
      <point x="124" y="-300" type="curve"/>
      <point x="146" y="-300"/>
      <point x="153" y="-289"/>
      <point x="156" y="-273" type="curve" smooth="yes"/>
      <point x="314" y="623" type="line" smooth="yes"/>
      <point x="317" y="638"/>
      <point x="309" y="650"/>
      <point x="289" y="650" type="curve" smooth="yes"/>
      <point x="267" y="650"/>
      <point x="265" y="634"/>
      <point x="263" y="624" type="curve" smooth="yes"/>
      <point x="106" y="-268" type="line" smooth="yes"/>
      <point x="103" y="-286"/>
      <point x="103" y="-300"/>
    </contour>
    <contour>
      <point x="-11" y="-300" type="curve" smooth="yes"/>
      <point x="127" y="-300" type="line"/>
      <point x="112" y="-255" type="line"/>
      <point x="-11" y="-255" type="line" smooth="yes"/>
      <point x="-28" y="-255"/>
      <point x="-38" y="-266"/>
      <point x="-38" y="-277" type="curve" smooth="yes"/>
      <point x="-38" y="-289"/>
      <point x="-30" y="-300"/>
    </contour>
    <contour>
      <point x="148" y="605" type="curve" smooth="yes"/>
      <point x="265" y="605" type="line"/>
      <point x="293" y="650" type="line"/>
      <point x="148" y="650" type="line" smooth="yes"/>
      <point x="130" y="650"/>
      <point x="121" y="638"/>
      <point x="121" y="627" type="curve" smooth="yes"/>
      <point x="121" y="616"/>
      <point x="130" y="605"/>
    </contour>
  </outline>
</glyph>
<glyph name="a" format="2">
  <advance width="366"/>
  <unicode hex="0061"/>
  <outline>
    <contour>
      <point x="99.0" y="-4.0" type="curve" smooth="yes"/>
      <point x="152" y="-4"/>
      <point x="211" y="49"/>
      <point x="251" y="158" type="curve"/>
      <point x="263" y="270" type="line"/>
      <point x="210" y="129"/>
      <point x="153" y="46"/>
      <point x="107.0" y="46.0" type="curve" smooth="yes"/>
      <point x="74" y="46"/>
      <point x="56" y="82"/>
      <point x="67" y="147" type="curve" smooth="yes"/>
      <point x="84" y="244"/>
      <point x="154" y="304"/>
      <point x="250" y="304" type="curve" smooth="yes"/>
      <point x="291" y="304" type="line"/>
      <point x="299" y="350" type="line"/>
      <point x="247" y="350" type="line" smooth="yes"/>
      <point x="127" y="350"/>
      <point x="39" y="272"/>
      <point x="16" y="147" type="curve" smooth="yes"/>
      <point x="-1" y="54"/>
      <point x="34" y="-4"/>
    </contour>
    <contour>
      <point x="241" y="0" type="curve" smooth="yes"/>
      <point x="267" y="0"/>
      <point x="269" y="18"/>
      <point x="270" y="23" type="curve" smooth="yes"/>
      <point x="322" y="316" type="line" smooth="yes"/>
      <point x="325" y="334"/>
      <point x="323" y="350"/>
      <point x="307" y="350" type="curve" smooth="yes"/>
      <point x="277" y="350" type="line"/>
      <point x="219" y="23" type="line" smooth="yes"/>
      <point x="218" y="15"/>
      <point x="219" y="0"/>
    </contour>
  </outline>
</glyph>
<glyph name="b" format="2">
  <advance width="395"/>
  <unicode hex="0062"/>
  <outline>
    <contour>
      <point x="135" y="-4" type="curve" smooth="yes"/>
      <point x="221" y="-4"/>
      <point x="298" y="91"/>
      <point x="298" y="198" type="curve" smooth="yes"/>
      <point x="298" y="233"/>
      <point x="291" y="269"/>
      <point x="276" y="323" type="curve"/>
      <point x="254" y="303" type="line"/>
      <point x="353" y="286" type="line" smooth="yes"/>
      <point x="376" y="282"/>
      <point x="395" y="287"/>
      <point x="395" y="308" type="curve" smooth="yes"/>
      <point x="395" y="317"/>
      <point x="389" y="329"/>
      <point x="371" y="332" type="curve" smooth="yes"/>
      <point x="257" y="350" type="line"/>
      <point x="226" y="357"/>
      <point x="228" y="330"/>
      <point x="232" y="319" type="curve" smooth="yes"/>
      <point x="240" y="294"/>
      <point x="252" y="260"/>
      <point x="252" y="208" type="curve" smooth="yes"/>
      <point x="252" y="123"/>
      <point x="200" y="46"/>
      <point x="143" y="46" type="curve" smooth="yes"/>
      <point x="106" y="46"/>
      <point x="87" y="90"/>
      <point x="97" y="148" type="curve" smooth="yes"/>
      <point x="181" y="623" type="line" smooth="yes"/>
      <point x="184" y="642"/>
      <point x="174" y="650"/>
      <point x="161" y="650" type="curve" smooth="yes"/>
      <point x="148" y="650"/>
      <point x="133" y="640"/>
      <point x="130" y="623" type="curve" smooth="yes"/>
      <point x="46" y="148" type="line" smooth="yes"/>
      <point x="31" y="61"/>
      <point x="69" y="-4"/>
    </contour>
  </outline>
</glyph>
<glyph name="c" format="2">
  <advance width="303"/>
  <unicode hex="0063"/>
  <outline>
    <contour>
      <point x="95" y="-4.0" type="curve" smooth="yes"/>
      <point x="144" y="-4.0"/>
      <point x="200" y="48"/>
      <point x="242" y="131" type="curve" smooth="yes"/>
      <point x="246" y="140"/>
      <point x="241" y="152"/>
      <point x="230" y="158" type="curve" smooth="yes"/>
      <point x="217" y="165"/>
      <point x="203" y="164"/>
      <point x="198" y="154" type="curve" smooth="yes"/>
      <point x="164" y="87"/>
      <point x="126" y="46"/>
      <point x="99" y="46" type="curve" smooth="yes"/>
      <point x="71" y="46"/>
      <point x="63" y="77"/>
      <point x="64" y="105" type="curve" smooth="yes"/>
      <point x="67" y="219"/>
      <point x="118" y="304"/>
      <point x="176" y="304" type="curve" smooth="yes"/>
      <point x="199" y="304"/>
      <point x="220" y="300"/>
      <point x="239" y="293" type="curve" smooth="yes"/>
      <point x="256" y="286"/>
      <point x="270" y="291"/>
      <point x="276" y="306" type="curve" smooth="yes"/>
      <point x="283" y="321"/>
      <point x="277" y="335"/>
      <point x="260" y="341" type="curve" smooth="yes"/>
      <point x="237" y="350"/>
      <point x="209" y="354"/>
      <point x="176" y="354" type="curve" smooth="yes"/>
      <point x="87" y="354"/>
      <point x="14" y="243"/>
      <point x="13" y="95" type="curve" smooth="yes"/>
      <point x="13" y="20"/>
      <point x="58" y="-4"/>
    </contour>
  </outline>
</glyph>
<glyph name="d" format="2">
	<advance width="351"/>
	<unicode hex="0064"/>
	<outline>
		<contour>
			<point x="228" y="0" type="curve" smooth="yes"/>
			<point x="239" y="0"/>
			<point x="249" y="6"/>
			<point x="252" y="21" type="curve" smooth="yes"/>
			<point x="359" y="623" type="line" smooth="yes"/>
			<point x="362" y="639"/>
			<point x="350" y="649"/>
			<point x="336" y="650" type="curve" smooth="yes"/>
			<point x="325" y="651"/>
			<point x="312" y="646"/>
			<point x="309" y="631" type="curve" smooth="yes"/>
			<point x="203" y="29" type="line" smooth="yes"/>
			<point x="200" y="11"/>
			<point x="214" y="1"/>
		</contour>
		<contour>
			<point x="89" y="-4" type="curve" smooth="yes"/>
			<point x="149" y="-4"/>
			<point x="193" y="49"/>
			<point x="229" y="113" type="curve"/>
			<point x="250" y="270" type="line"/>
			<point x="197" y="139"/>
			<point x="132" y="46"/>
			<point x="97" y="46" type="curve" smooth="yes"/>
			<point x="64" y="46"/>
			<point x="39" y="82"/>
			<point x="50" y="147" type="curve" smooth="yes"/>
			<point x="60" y="205"/>
			<point x="99" y="300"/>
			<point x="233" y="300" type="curve"/>
			<point x="256" y="300" type="line"/>
			<point x="264" y="350" type="line"/>
			<point x="230" y="350" type="line"/>
			<point x="64" y="350"/>
			<point x="15" y="237"/>
			<point x="-1" y="147" type="curve" smooth="yes"/>
			<point x="-19" y="47"/>
			<point x="45" y="-4"/>
		</contour>
	</outline>
</glyph>
<glyph name="e" format="2">
	<advance width="282"/>
	<unicode hex="0065"/>
	<outline>
		<contour>
			<point x="81" y="-4" type="curve" smooth="yes"/>
			<point x="154" y="-4"/>
			<point x="192" y="50"/>
			<point x="203" y="64" type="curve" smooth="yes"/>
			<point x="225" y="93"/>
			<point x="220" y="106"/>
			<point x="210" y="113" type="curve" smooth="yes"/>
			<point x="199" y="121"/>
			<point x="184" y="122"/>
			<point x="165" y="97" type="curve" smooth="yes"/>
			<point x="154" y="84"/>
			<point x="128" y="45"/>
			<point x="82" y="45" type="curve" smooth="yes"/>
			<point x="50" y="45"/>
			<point x="43" y="64"/>
			<point x="45" y="98" type="curve" smooth="yes"/>
			<point x="48" y="142"/>
			<point x="66" y="216"/>
			<point x="95" y="259" type="curve" smooth="yes"/>
			<point x="119" y="294"/>
			<point x="147" y="303"/>
			<point x="172" y="303" type="curve" smooth="yes"/>
			<point x="190" y="303"/>
			<point x="203" y="296"/>
			<point x="201" y="288" type="curve" smooth="yes"/>
			<point x="197" y="267"/>
			<point x="158" y="239"/>
			<point x="109" y="210" type="curve" smooth="yes"/>
			<point x="84" y="196"/>
			<point x="56" y="181"/>
			<point x="34" y="169" type="curve"/>
			<point x="22" y="108" type="line"/>
			<point x="37" y="115"/>
			<point x="99" y="147"/>
			<point x="137" y="168" type="curve" smooth="yes"/>
			<point x="177" y="191"/>
			<point x="241" y="230"/>
			<point x="252" y="291" type="curve" smooth="yes"/>
			<point x="259" y="332"/>
			<point x="217" y="354"/>
			<point x="166" y="354" type="curve" smooth="yes"/>
			<point x="147" y="354"/>
			<point x="98" y="350"/>
			<point x="54" y="284" type="curve" smooth="yes"/>
			<point x="25" y="240"/>
			<point x="-2" y="167"/>
			<point x="-6" y="107" type="curve" smooth="yes"/>
			<point x="-13" y="19"/>
			<point x="33" y="-4"/>
		</contour>
	</outline>
</glyph>
<glyph name="f" format="2">
  <advance width="247"/>
  <unicode hex="0066"/>
  <outline>
    <contour>
      <point x="17" y="-300" type="curve" smooth="yes"/>
      <point x="34" y="-301"/>
      <point x="41" y="-286"/>
      <point x="43" y="-274" type="curve" smooth="yes"/>
      <point x="173" y="522" type="line" smooth="yes"/>
      <point x="183" y="581"/>
      <point x="208" y="600"/>
      <point x="241" y="600" type="curve" smooth="yes"/>
      <point x="252" y="600"/>
      <point x="271" y="594"/>
      <point x="283" y="586" type="curve" smooth="yes"/>
      <point x="289" y="582"/>
      <point x="306" y="580"/>
      <point x="316" y="598" type="curve" smooth="yes"/>
      <point x="325" y="615"/>
      <point x="314" y="626"/>
      <point x="306" y="631" type="curve" smooth="yes"/>
      <point x="290" y="642"/>
      <point x="261" y="650"/>
      <point x="242" y="650" type="curve" smooth="yes"/>
      <point x="192" y="650"/>
      <point x="139" y="622"/>
      <point x="125" y="534" type="curve" smooth="yes"/>
      <point x="-7" y="-270" type="line" smooth="yes"/>
      <point x="-9" y="-282"/>
      <point x="-1" y="-298"/>
    </contour>
    <contour>
      <point x="34" y="305" type="curve" smooth="yes"/>
      <point x="209" y="305" type="line" smooth="yes"/>
      <point x="229" y="305"/>
      <point x="233" y="316"/>
      <point x="233" y="328" type="curve" smooth="yes"/>
      <point x="233" y="340"/>
      <point x="226" y="350"/>
      <point x="206" y="350" type="curve" smooth="yes"/>
      <point x="31" y="350" type="line" smooth="yes"/>
      <point x="11" y="350"/>
      <point x="6" y="340"/>
      <point x="6" y="328" type="curve" smooth="yes"/>
      <point x="6" y="316"/>
      <point x="14" y="305"/>
    </contour>
  </outline>
</glyph>
<glyph name="g" format="2">
  <advance width="357"/>
  <unicode hex="0067"/>
  <outline>
    <contour>
      <point x="81" y="-300.0" type="curve" smooth="yes"/>
      <point x="170.0" y="-300.0"/>
      <point x="221" y="-244"/>
      <point x="246" y="-107" type="curve" smooth="yes"/>
      <point x="322" y="322" type="line" smooth="yes"/>
      <point x="325" y="340"/>
      <point x="318" y="350"/>
      <point x="298" y="350" type="curve"/>
      <point x="276" y="350" type="line"/>
      <point x="197" y="-103" type="line" smooth="yes"/>
      <point x="180" y="-207"/>
      <point x="147.0" y="-250.0"/>
      <point x="83.0" y="-250.0" type="curve" smooth="yes"/>
      <point x="54.0" y="-250.0"/>
      <point x="24" y="-242"/>
      <point x="5" y="-228" type="curve" smooth="yes"/>
      <point x="-6" y="-221"/>
      <point x="-20" y="-225"/>
      <point x="-27" y="-233" type="curve" smooth="yes"/>
      <point x="-36" y="-244"/>
      <point x="-35" y="-259"/>
      <point x="-25" y="-267" type="curve" smooth="yes"/>
      <point x="-1" y="-287"/>
      <point x="39" y="-300.0"/>
    </contour>
    <contour>
      <point x="99" y="-4" type="curve" smooth="yes"/>
      <point x="152" y="-4"/>
      <point x="211" y="49"/>
      <point x="251" y="158" type="curve"/>
      <point x="263" y="270" type="line"/>
      <point x="210" y="129"/>
      <point x="153" y="46"/>
      <point x="107" y="46" type="curve" smooth="yes"/>
      <point x="74" y="46"/>
      <point x="56" y="82"/>
      <point x="67" y="147" type="curve" smooth="yes"/>
      <point x="84" y="244"/>
      <point x="154" y="304"/>
      <point x="250" y="304" type="curve" smooth="yes"/>
      <point x="291" y="304" type="line"/>
      <point x="299" y="350" type="line"/>
      <point x="247" y="350" type="line" smooth="yes"/>
      <point x="127" y="350"/>
      <point x="39" y="272"/>
      <point x="16" y="147" type="curve" smooth="yes"/>
      <point x="-1" y="54"/>
      <point x="34" y="-4"/>
    </contour>
  </outline>
</glyph>
<glyph name="h" format="2">
  <advance width="395"/>
  <unicode hex="0068"/>
  <outline>
    <contour>
      <point x="46" y="0" type="curve" smooth="yes"/>
      <point x="72" y="0"/>
      <point x="74" y="18"/>
      <point x="75" y="23" type="curve" smooth="yes"/>
      <point x="180" y="623" type="line" smooth="yes"/>
      <point x="183" y="640"/>
      <point x="179" y="650"/>
      <point x="162" y="650" type="curve"/>
      <point x="142" y="650"/>
      <point x="132" y="641"/>
      <point x="129" y="623" type="curve" smooth="yes"/>
      <point x="24" y="23" type="line" smooth="yes"/>
      <point x="23" y="15"/>
      <point x="24" y="0"/>
    </contour>
    <contour>
      <point x="271" y="0" type="curve" smooth="yes"/>
      <point x="297" y="0"/>
      <point x="298" y="16"/>
      <point x="299" y="21" type="curve" smooth="yes"/>
      <point x="336" y="230" type="line" smooth="yes"/>
      <point x="347" y="294"/>
      <point x="315" y="354"/>
      <point x="243" y="354" type="curve" smooth="yes"/>
      <point x="188" y="354"/>
      <point x="147" y="319"/>
      <point x="101" y="246" type="curve"/>
      <point x="91" y="174" type="line"/>
      <point x="153" y="270"/>
      <point x="198" y="305"/>
      <point x="240" y="305" type="curve" smooth="yes"/>
      <point x="284" y="305"/>
      <point x="292" y="267"/>
      <point x="286" y="233" type="curve" smooth="yes"/>
      <point x="249" y="24" type="line" smooth="yes"/>
      <point x="248" y="16"/>
      <point x="249" y="0"/>
    </contour>
  </outline>
</glyph>
<glyph name="i" format="2">
	<advance width="155"/>
	<unicode hex="0069"/>
	<outline>
		<contour>
			<point x="24" y="0" type="curve" smooth="yes"/>
			<point x="36" y="0"/>
			<point x="51" y="10"/>
			<point x="54" y="28" type="curve" smooth="yes"/>
			<point x="106" y="320" type="line" smooth="yes"/>
			<point x="110" y="340"/>
			<point x="98" y="350"/>
			<point x="86" y="350" type="curve" smooth="yes"/>
			<point x="73" y="350"/>
			<point x="58" y="341"/>
			<point x="55" y="323" type="curve" smooth="yes"/>
			<point x="3" y="28" type="line" smooth="yes"/>
			<point x="0" y="9"/>
			<point x="11" y="0"/>
		</contour>
		<contour>
			<point x="106" y="441" type="curve" smooth="yes"/>
			<point x="121" y="441"/>
			<point x="134" y="454"/>
			<point x="134" y="468" type="curve" smooth="yes"/>
			<point x="134" y="483"/>
			<point x="120" y="494"/>
			<point x="106" y="494" type="curve" smooth="yes"/>
			<point x="90" y="494"/>
			<point x="79" y="481"/>
			<point x="79" y="468" type="curve" smooth="yes"/>
			<point x="79" y="454"/>
			<point x="91" y="441"/>
		</contour>
	</outline>
</glyph>
<glyph name="j" format="2">
	<advance width="139"/>
	<unicode hex="006A"/>
	<outline>
		<contour>
			<point x="91" y="440" type="curve" smooth="yes"/>
			<point x="106" y="440"/>
			<point x="119" y="453"/>
			<point x="119" y="468" type="curve" smooth="yes"/>
			<point x="119" y="484"/>
			<point x="106" y="495"/>
			<point x="91" y="495" type="curve" smooth="yes"/>
			<point x="76" y="495"/>
			<point x="64" y="484"/>
			<point x="64" y="468" type="curve" smooth="yes"/>
			<point x="64" y="453"/>
			<point x="76" y="440"/>
		</contour>
		<contour>
			<point x="-160" y="-300" type="curve" smooth="yes"/>
			<point x="-118" y="-300"/>
			<point x="-79" y="-289"/>
			<point x="-53" y="-266" type="curve" smooth="yes"/>
			<point x="-11" y="-228"/>
			<point x="4" y="-168"/>
			<point x="15" y="-107" type="curve" smooth="yes"/>
			<point x="91" y="324" type="line" smooth="yes"/>
			<point x="94" y="341"/>
			<point x="83" y="350"/>
			<point x="69" y="350" type="curve" smooth="yes"/>
			<point x="55" y="350"/>
			<point x="43" y="341"/>
			<point x="41" y="330" type="curve" smooth="yes"/>
			<point x="-35" y="-103" type="line" smooth="yes"/>
			<point x="-41" y="-138"/>
			<point x="-53" y="-198"/>
			<point x="-83" y="-227" type="curve" smooth="yes"/>
			<point x="-102" y="-245"/>
			<point x="-136" y="-250"/>
			<point x="-161" y="-250" type="curve" smooth="yes"/>
			<point x="-189" y="-250"/>
			<point x="-212" y="-237"/>
			<point x="-227" y="-229" type="curve" smooth="yes"/>
			<point x="-233" y="-226"/>
			<point x="-247" y="-223"/>
			<point x="-258" y="-234" type="curve" smooth="yes"/>
			<point x="-269" y="-245"/>
			<point x="-267" y="-259"/>
			<point x="-256" y="-268" type="curve" smooth="yes"/>
			<point x="-239" y="-282"/>
			<point x="-205" y="-300"/>
		</contour>
	</outline>
</glyph>
<glyph name="l" format="2">
	<advance width="138"/>
	<unicode hex="006C"/>
	<outline>
		<contour>
			<point x="18" y="0" type="curve" smooth="yes"/>
			<point x="29" y="0"/>
			<point x="40" y="7"/>
			<point x="43" y="22" type="curve" smooth="yes"/>
			<point x="149" y="624" type="line" smooth="yes"/>
			<point x="152" y="640"/>
			<point x="139" y="650"/>
			<point x="125" y="650" type="curve" smooth="yes"/>
			<point x="114" y="650"/>
			<point x="103" y="644"/>
			<point x="100" y="629" type="curve" smooth="yes"/>
			<point x="-6" y="27" type="line" smooth="yes"/>
			<point x="-9" y="9"/>
			<point x="4" y="0"/>
		</contour>
	</outline>
</glyph>
<glyph name="m" format="2">
  <advance width="589"/>
  <unicode hex="006D"/>
  <outline>
    <contour>
      <point x="36" y="0" type="curve" smooth="yes"/>
      <point x="62" y="0"/>
      <point x="64" y="18"/>
      <point x="65" y="23" type="curve" smooth="yes"/>
      <point x="118" y="323" type="line" smooth="yes"/>
      <point x="120" y="340"/>
      <point x="117" y="350"/>
      <point x="100" y="350" type="curve"/>
      <point x="80" y="350"/>
      <point x="71" y="341"/>
      <point x="67" y="323" type="curve" smooth="yes"/>
      <point x="14" y="23" type="line" smooth="yes"/>
      <point x="13" y="15"/>
      <point x="14" y="0"/>
    </contour>
    <contour>
      <point x="251" y="0" type="curve" smooth="yes"/>
      <point x="277" y="0"/>
      <point x="278" y="16"/>
      <point x="279" y="21" type="curve" smooth="yes"/>
      <point x="316" y="230" type="line" smooth="yes"/>
      <point x="327" y="294"/>
      <point x="295" y="354"/>
      <point x="223" y="354" type="curve" smooth="yes"/>
      <point x="168" y="354"/>
      <point x="137" y="319"/>
      <point x="91" y="246" type="curve"/>
      <point x="81" y="174" type="line"/>
      <point x="143" y="270"/>
      <point x="178" y="305"/>
      <point x="220" y="305" type="curve" smooth="yes"/>
      <point x="264" y="305"/>
      <point x="272" y="267"/>
      <point x="266" y="233" type="curve" smooth="yes"/>
      <point x="229" y="24" type="line" smooth="yes"/>
      <point x="228" y="16"/>
      <point x="229" y="0"/>
    </contour>
    <contour>
      <point x="465" y="0" type="curve" smooth="yes"/>
      <point x="491" y="0"/>
      <point x="492" y="16"/>
      <point x="493" y="21" type="curve" smooth="yes"/>
      <point x="530" y="230" type="line" smooth="yes"/>
      <point x="541" y="294"/>
      <point x="509" y="354"/>
      <point x="437" y="354" type="curve" smooth="yes"/>
      <point x="382" y="354"/>
      <point x="351" y="319"/>
      <point x="305" y="246" type="curve"/>
      <point x="295" y="174" type="line"/>
      <point x="357" y="270"/>
      <point x="392" y="305"/>
      <point x="434" y="305" type="curve" smooth="yes"/>
      <point x="478" y="305"/>
      <point x="486" y="267"/>
      <point x="480" y="233" type="curve" smooth="yes"/>
      <point x="443" y="24" type="line" smooth="yes"/>
      <point x="442" y="16"/>
      <point x="443" y="0"/>
    </contour>
  </outline>
</glyph>
<glyph name="n" format="2">
  <advance width="385"/>
  <unicode hex="006E"/>
  <outline>
    <contour>
      <point x="36" y="0" type="curve" smooth="yes"/>
      <point x="62" y="0"/>
      <point x="64" y="18"/>
      <point x="65" y="23" type="curve" smooth="yes"/>
      <point x="118" y="323" type="line" smooth="yes"/>
      <point x="120" y="340"/>
      <point x="117" y="350"/>
      <point x="100" y="350" type="curve"/>
      <point x="80" y="350"/>
      <point x="71" y="341"/>
      <point x="67" y="323" type="curve" smooth="yes"/>
      <point x="14" y="23" type="line" smooth="yes"/>
      <point x="13" y="15"/>
      <point x="14" y="0"/>
    </contour>
    <contour>
      <point x="261" y="0" type="curve" smooth="yes"/>
      <point x="287" y="0"/>
      <point x="288" y="16"/>
      <point x="289" y="21" type="curve" smooth="yes"/>
      <point x="326" y="230" type="line" smooth="yes"/>
      <point x="337" y="294"/>
      <point x="305" y="354"/>
      <point x="233" y="354" type="curve" smooth="yes"/>
      <point x="178" y="354"/>
      <point x="137" y="319"/>
      <point x="91" y="246" type="curve"/>
      <point x="81" y="174" type="line"/>
      <point x="143" y="270"/>
      <point x="188" y="305"/>
      <point x="230" y="305" type="curve" smooth="yes"/>
      <point x="274" y="305"/>
      <point x="282" y="267"/>
      <point x="276" y="233" type="curve" smooth="yes"/>
      <point x="239" y="24" type="line" smooth="yes"/>
      <point x="238" y="16"/>
      <point x="239" y="0"/>
    </contour>
  </outline>
</glyph>
<glyph name="o" format="2">
  <advance width="324"/>
  <unicode hex="006F"/>
  <outline>
    <contour>
      <point x="123" y="-4" type="curve" smooth="yes"/>
      <point x="212" y="-4"/>
      <point x="278" y="95"/>
      <point x="278" y="228" type="curve" smooth="yes"/>
      <point x="278" y="306"/>
      <point x="236" y="354"/>
      <point x="167" y="354" type="curve" smooth="yes"/>
      <point x="82" y="354"/>
      <point x="18" y="257"/>
      <point x="18" y="126" type="curve" smooth="yes"/>
      <point x="18" y="52"/>
      <point x="63" y="-4"/>
    </contour>
    <contour>
      <point x="123" y="46" type="curve" smooth="yes"/>
      <point x="91" y="46"/>
      <point x="68" y="84"/>
      <point x="68" y="136" type="curve" smooth="yes"/>
      <point x="68" y="232"/>
      <point x="110" y="304"/>
      <point x="167" y="304" type="curve" smooth="yes"/>
      <point x="205" y="304"/>
      <point x="228" y="275"/>
      <point x="228" y="227" type="curve" smooth="yes"/>
      <point x="228" y="123"/>
      <point x="183" y="46"/>
    </contour>
  </outline>
</glyph>
<glyph name="p" format="2">
	<advance width="380"/>
	<unicode hex="0070"/>
	<outline>
		<contour>
			<point x="-41" y="-300" type="curve" smooth="yes"/>
			<point x="-29" y="-300"/>
			<point x="-15" y="-292"/>
			<point x="-12" y="-277" type="curve" smooth="yes"/>
			<point x="95" y="327" type="line" smooth="yes"/>
			<point x="98" y="342"/>
			<point x="86" y="350"/>
			<point x="73" y="350" type="curve" smooth="yes"/>
			<point x="61" y="350"/>
			<point x="47" y="342"/>
			<point x="44" y="327" type="curve" smooth="yes"/>
			<point x="-63" y="-276" type="line" smooth="yes"/>
			<point x="-66" y="-292"/>
			<point x="-54" y="-300"/>
		</contour>
		<contour>
			<point x="237" y="0" type="curve" smooth="yes"/>
			<point x="263" y="0"/>
			<point x="264" y="16"/>
			<point x="265" y="21" type="curve" smooth="yes"/>
			<point x="302" y="230" type="line" smooth="yes"/>
			<point x="313" y="294"/>
			<point x="281" y="354"/>
			<point x="209" y="354" type="curve" smooth="yes"/>
			<point x="154" y="354"/>
			<point x="113" y="319"/>
			<point x="67" y="246" type="curve"/>
			<point x="57" y="114" type="line"/>
			<point x="119" y="251"/>
			<point x="164" y="305"/>
			<point x="206" y="305" type="curve" smooth="yes"/>
			<point x="250" y="305"/>
			<point x="258" y="267"/>
			<point x="252" y="233" type="curve" smooth="yes"/>
			<point x="215" y="24" type="line" smooth="yes"/>
			<point x="214" y="16"/>
			<point x="215" y="0"/>
		</contour>
		<contour>
			<point x="255" y="4" type="line"/>
			<point x="348" y="81" type="line" smooth="yes"/>
			<point x="360" y="91"/>
			<point x="365" y="101"/>
			<point x="367" y="110" type="curve" smooth="yes"/>
			<point x="368" y="122"/>
			<point x="360" y="132"/>
			<point x="347" y="132" type="curve" smooth="yes"/>
			<point x="339" y="133"/>
			<point x="328" y="129"/>
			<point x="316" y="119" type="curve" smooth="yes"/>
			<point x="268" y="79" type="line"/>
		</contour>
	</outline>
</glyph>
<glyph name="q" format="2">
	<advance width="372"/>
	<unicode hex="0071"/>
	<outline>
		<contour>
			<point x="183" y="-300" type="curve" smooth="yes"/>
			<point x="196" y="-300"/>
			<point x="211" y="-291"/>
			<point x="214" y="-273" type="curve" smooth="yes"/>
			<point x="320" y="327" type="line" smooth="yes"/>
			<point x="321" y="335"/>
			<point x="320" y="350"/>
			<point x="298" y="350" type="curve" smooth="yes"/>
			<point x="273" y="350" type="line"/>
			<point x="164" y="-273" type="line" smooth="yes"/>
			<point x="161" y="-291"/>
			<point x="171" y="-300"/>
		</contour>
		<contour>
			<point x="102" y="-4" type="curve" smooth="yes"/>
			<point x="162" y="-4"/>
			<point x="206" y="49"/>
			<point x="242" y="113" type="curve"/>
			<point x="263" y="270" type="line"/>
			<point x="210" y="139"/>
			<point x="145" y="46"/>
			<point x="110" y="46" type="curve" smooth="yes"/>
			<point x="77" y="46"/>
			<point x="52" y="82"/>
			<point x="63" y="147" type="curve" smooth="yes"/>
			<point x="73" y="205"/>
			<point x="112" y="300"/>
			<point x="246" y="300" type="curve"/>
			<point x="269" y="300" type="line"/>
			<point x="277" y="350" type="line"/>
			<point x="243" y="350" type="line"/>
			<point x="77" y="350"/>
			<point x="28" y="237"/>
			<point x="12" y="147" type="curve" smooth="yes"/>
			<point x="-6" y="47"/>
			<point x="58" y="-4"/>
		</contour>
		<contour>
			<point x="201" y="-294" type="line"/>
			<point x="294" y="-217" type="line" smooth="yes"/>
			<point x="306" y="-207"/>
			<point x="311" y="-197"/>
			<point x="313" y="-188" type="curve" smooth="yes"/>
			<point x="314" y="-176"/>
			<point x="306" y="-166"/>
			<point x="293" y="-166" type="curve" smooth="yes"/>
			<point x="285" y="-165"/>
			<point x="274" y="-169"/>
			<point x="262" y="-179" type="curve" smooth="yes"/>
			<point x="218" y="-216" type="line"/>
		</contour>
	</outline>
</glyph>
<glyph name="r" format="2">
  <advance width="322"/>
  <unicode hex="0072"/>
  <outline>
    <contour>
      <point x="36" y="0" type="curve" smooth="yes"/>
      <point x="49" y="0"/>
      <point x="63" y="9"/>
      <point x="66" y="27" type="curve" smooth="yes"/>
      <point x="117" y="320" type="line" smooth="yes"/>
      <point x="120" y="340"/>
      <point x="109" y="350"/>
      <point x="96" y="350" type="curve" smooth="yes"/>
      <point x="84" y="350"/>
      <point x="70" y="341"/>
      <point x="67" y="323" type="curve" smooth="yes"/>
      <point x="15" y="27" type="line" smooth="yes"/>
      <point x="12" y="9"/>
      <point x="23" y="0"/>
    </contour>
    <contour>
      <point x="85" y="176" type="line"/>
      <point x="156" y="285"/>
      <point x="192.09522915649663" y="307.0"/>
      <point x="209" y="307" type="curve" smooth="yes"/>
      <point x="223" y="307"/>
      <point x="235" y="278"/>
      <point x="265" y="278" type="curve" smooth="yes"/>
      <point x="276" y="278"/>
      <point x="298" y="282"/>
      <point x="316" y="293" type="curve" smooth="yes"/>
      <point x="332" y="302"/>
      <point x="344" y="313"/>
      <point x="344" y="329" type="curve" smooth="yes"/>
      <point x="344" y="350"/>
      <point x="317" y="353"/>
      <point x="297" y="339" type="curve" smooth="yes"/>
      <point x="290" y="334"/>
      <point x="276" y="326"/>
      <point x="266" y="326" type="curve" smooth="yes"/>
      <point x="247" y="326"/>
      <point x="250" y="354"/>
      <point x="217" y="354" type="curve" smooth="yes"/>
      <point x="180.170090613559" y="354.0"/>
      <point x="134" y="318"/>
      <point x="100" y="249" type="curve"/>
    </contour>
  </outline>
</glyph>
<glyph name="s" format="2">
  <advance width="340"/>
  <unicode hex="0073"/>
  <outline>
    <contour>
      <point x="146" y="-4" type="curve" smooth="yes"/>
      <point x="210" y="-4"/>
      <point x="258" y="35"/>
      <point x="258" y="88" type="curve" smooth="yes"/>
      <point x="258" y="125"/>
      <point x="245" y="145"/>
      <point x="227" y="162" type="curve" smooth="yes"/>
      <point x="205" y="184"/>
      <point x="179" y="195"/>
      <point x="152" y="214" type="curve" smooth="yes"/>
      <point x="130" y="229"/>
      <point x="107" y="246"/>
      <point x="107" y="265" type="curve" smooth="yes"/>
      <point x="107" y="289"/>
      <point x="133" y="304"/>
      <point x="174" y="304" type="curve" smooth="yes"/>
      <point x="206" y="304"/>
      <point x="233" y="285"/>
      <point x="245" y="279" type="curve" smooth="yes"/>
      <point x="262" y="270"/>
      <point x="280" y="272"/>
      <point x="288" y="284" type="curve" smooth="yes"/>
      <point x="296" y="297"/>
      <point x="288" y="314"/>
      <point x="268" y="325" type="curve" smooth="yes"/>
      <point x="232" y="346"/>
      <point x="201" y="350"/>
      <point x="174" y="350" type="curve" smooth="yes"/>
      <point x="102" y="350"/>
      <point x="57" y="318"/>
      <point x="57" y="265" type="curve" smooth="yes"/>
      <point x="57" y="226"/>
      <point x="89" y="194"/>
      <point x="118" y="176" type="curve" smooth="yes"/>
      <point x="145" y="159"/>
      <point x="170" y="144"/>
      <point x="184" y="133" type="curve" smooth="yes"/>
      <point x="197" y="122"/>
      <point x="208" y="110"/>
      <point x="208" y="91" type="curve" smooth="yes"/>
      <point x="208" y="63"/>
      <point x="182" y="42"/>
      <point x="146" y="42" type="curve" smooth="yes"/>
      <point x="114" y="42"/>
      <point x="82" y="63"/>
      <point x="67" y="74" type="curve" smooth="yes"/>
      <point x="52" y="85"/>
      <point x="32" y="85"/>
      <point x="25" y="73" type="curve" smooth="yes"/>
      <point x="15" y="56"/>
      <point x="29" y="45"/>
      <point x="46" y="32" type="curve" smooth="yes"/>
      <point x="80" y="7"/>
      <point x="119" y="-4"/>
    </contour>
  </outline>
</glyph>
<glyph name="t" format="2">
	<advance width="237"/>
	<unicode hex="0074"/>
	<outline>
		<contour>
			<point x="60" y="0" type="curve" smooth="yes"/>
			<point x="73" y="0"/>
			<point x="86" y="7"/>
			<point x="89" y="23" type="curve" smooth="yes"/>
			<point x="179" y="540" type="line" smooth="yes"/>
			<point x="182" y="558"/>
			<point x="168" y="568"/>
			<point x="154" y="568" type="curve" smooth="yes"/>
			<point x="143" y="568"/>
			<point x="133" y="561"/>
			<point x="130" y="547" type="curve" smooth="yes"/>
			<point x="37" y="24" type="line" smooth="yes"/>
			<point x="34" y="8"/>
			<point x="47" y="0"/>
		</contour>
		<contour>
			<point x="10" y="305" type="curve" smooth="yes"/>
			<point x="234" y="305" type="line" smooth="yes"/>
			<point x="254" y="305"/>
			<point x="260" y="316"/>
			<point x="260" y="328" type="curve" smooth="yes"/>
			<point x="260" y="340"/>
			<point x="254" y="350"/>
			<point x="234" y="350" type="curve" smooth="yes"/>
			<point x="10" y="350" type="line" smooth="yes"/>
			<point x="-10" y="350"/>
			<point x="-16" y="340"/>
			<point x="-16" y="328" type="curve" smooth="yes"/>
			<point x="-16" y="316"/>
			<point x="-10" y="305"/>
		</contour>
	</outline>
</glyph>
<glyph name="u" format="2">
	<advance width="366"/>
	<unicode hex="0075"/>
	<outline>
		<contour>
			<point x="230" y="0" type="curve"/>
			<point x="250" y="0"/>
			<point x="259" y="9"/>
			<point x="263" y="27" type="curve" smooth="yes"/>
			<point x="316" y="327" type="line" smooth="yes"/>
			<point x="317" y="335"/>
			<point x="316" y="350"/>
			<point x="294" y="350" type="curve" smooth="yes"/>
			<point x="268" y="350"/>
			<point x="266" y="332"/>
			<point x="265" y="327" type="curve" smooth="yes"/>
			<point x="212" y="27" type="line" smooth="yes"/>
			<point x="210" y="10"/>
			<point x="213" y="0"/>
		</contour>
		<contour>
			<point x="97" y="-4" type="curve" smooth="yes"/>
			<point x="152" y="-4"/>
			<point x="193" y="31"/>
			<point x="239" y="104" type="curve"/>
			<point x="249" y="236" type="line"/>
			<point x="187" y="99"/>
			<point x="142" y="45"/>
			<point x="100" y="45" type="curve" smooth="yes"/>
			<point x="56" y="45"/>
			<point x="48" y="83"/>
			<point x="54" y="117" type="curve" smooth="yes"/>
			<point x="91" y="326" type="line" smooth="yes"/>
			<point x="92" y="334"/>
			<point x="91" y="350"/>
			<point x="69" y="350" type="curve" smooth="yes"/>
			<point x="43" y="350"/>
			<point x="42" y="334"/>
			<point x="41" y="329" type="curve" smooth="yes"/>
			<point x="4" y="120" type="line" smooth="yes"/>
			<point x="-7" y="56"/>
			<point x="25" y="-4"/>
		</contour>
	</outline>
</glyph>
<glyph name="v" format="2">
	<advance width="402"/>
	<unicode hex="0076"/>
	<outline>
		<contour>
			<point x="52" y="-4" type="curve" smooth="yes"/>
			<point x="76" y="-4"/>
			<point x="102" y="7"/>
			<point x="127" y="25" type="curve" smooth="yes"/>
			<point x="207" y="84"/>
			<point x="280" y="211"/>
			<point x="321" y="288" type="curve" smooth="yes"/>
			<point x="344" y="333"/>
			<point x="334" y="350"/>
			<point x="314" y="350" type="curve" smooth="yes"/>
			<point x="296" y="350"/>
			<point x="290" y="337"/>
			<point x="278" y="315" type="curve" smooth="yes"/>
			<point x="243" y="247"/>
			<point x="165" y="114"/>
			<point x="98" y="63" type="curve" smooth="yes"/>
			<point x="84" y="52"/>
			<point x="75" y="47"/>
			<point x="66" y="47" type="curve" smooth="yes"/>
			<point x="49" y="47"/>
			<point x="52" y="86"/>
			<point x="55" y="102" type="curve" smooth="yes"/>
			<point x="94" y="320" type="line" smooth="yes"/>
			<point x="98" y="340"/>
			<point x="86" y="350"/>
			<point x="73" y="350" type="curve" smooth="yes"/>
			<point x="61" y="350"/>
			<point x="46" y="341"/>
			<point x="43" y="323" type="curve" smooth="yes"/>
			<point x="4" y="102" type="line" smooth="yes"/>
			<point x="-5" y="50"/>
			<point x="-1" y="-4"/>
		</contour>
		<contour>
			<point x="318" y="297" type="line"/>
			<point x="381" y="284" type="line" smooth="yes"/>
			<point x="393" y="282"/>
			<point x="407" y="282"/>
			<point x="416" y="292" type="curve" smooth="yes"/>
			<point x="423" y="298"/>
			<point x="426" y="310"/>
			<point x="421" y="320" type="curve" smooth="yes"/>
			<point x="417" y="326"/>
			<point x="411" y="332"/>
			<point x="399" y="334" type="curve" smooth="yes"/>
			<point x="316" y="350" type="line"/>
		</contour>
	</outline>
</glyph>
<glyph name="w" format="2">
  <advance width="693"/>
  <unicode hex="0077"/>
  <outline>
    <contour>
      <point x="76" y="-4" type="curve" smooth="yes"/>
      <point x="152" y="-4"/>
      <point x="237" y="108"/>
      <point x="298" y="216" type="curve"/>
      <point x="292" y="216" type="line"/>
      <point x="270" y="102" type="line" smooth="yes"/>
      <point x="260" y="52"/>
      <point x="264" y="-4"/>
      <point x="318" y="-4" type="curve" smooth="yes"/>
      <point x="426" y="-4"/>
      <point x="564" y="244"/>
      <point x="587" y="288" type="curve" smooth="yes"/>
      <point x="591" y="296" type="line"/>
      <point x="647" y="284" type="line" smooth="yes"/>
      <point x="659" y="282"/>
      <point x="673" y="282"/>
      <point x="682" y="292" type="curve" smooth="yes"/>
      <point x="689" y="298"/>
      <point x="692" y="310"/>
      <point x="687" y="320" type="curve" smooth="yes"/>
      <point x="683" y="326"/>
      <point x="677" y="332"/>
      <point x="665" y="334" type="curve" smooth="yes"/>
      <point x="588" y="349" type="line"/>
      <point x="586" y="349"/>
      <point x="585" y="350"/>
      <point x="583" y="350" type="curve"/>
      <point x="582" y="350" type="line"/>
      <point x="582" y="350" type="line"/>
      <point x="581" y="350"/>
      <point x="581" y="350"/>
      <point x="580" y="350" type="curve" smooth="yes"/>
      <point x="562" y="350"/>
      <point x="556" y="337"/>
      <point x="544" y="315" type="curve" smooth="yes"/>
      <point x="498" y="226"/>
      <point x="383" y="47"/>
      <point x="332" y="47" type="curve" smooth="yes"/>
      <point x="316" y="47"/>
      <point x="315" y="70"/>
      <point x="321" y="102" type="curve" smooth="yes"/>
      <point x="360" y="320" type="line" smooth="yes"/>
      <point x="364" y="340"/>
      <point x="352" y="350"/>
      <point x="339" y="350" type="curve"/>
      <point x="321" y="350"/>
      <point x="314" y="337"/>
      <point x="302" y="315" type="curve" smooth="yes"/>
      <point x="256" y="226"/>
      <point x="141" y="47"/>
      <point x="90" y="47" type="curve" smooth="yes"/>
      <point x="74" y="47"/>
      <point x="73" y="70"/>
      <point x="79" y="102" type="curve" smooth="yes"/>
      <point x="118" y="320" type="line" smooth="yes"/>
      <point x="122" y="340"/>
      <point x="110" y="350"/>
      <point x="97" y="350" type="curve" smooth="yes"/>
      <point x="85" y="350"/>
      <point x="70" y="341"/>
      <point x="67" y="323" type="curve" smooth="yes"/>
      <point x="28" y="102" type="line" smooth="yes"/>
      <point x="18" y="52"/>
      <point x="22" y="-4"/>
    </contour>
  </outline>
</glyph>
<glyph name="x" format="2">
	<advance width="406"/>
	<unicode hex="0078"/>
	<outline>
		<contour>
			<point x="218" y="-1" type="curve" smooth="yes"/>
			<point x="271" y="-1"/>
			<point x="325" y="63"/>
			<point x="361" y="134" type="curve" smooth="yes"/>
			<point x="366" y="144"/>
			<point x="356" y="157"/>
			<point x="349" y="161" type="curve" smooth="yes"/>
			<point x="341" y="165"/>
			<point x="323" y="168"/>
			<point x="317" y="157" type="curve" smooth="yes"/>
			<point x="287" y="99"/>
			<point x="242" y="49"/>
			<point x="218" y="49" type="curve" smooth="yes"/>
			<point x="190" y="49"/>
			<point x="182" y="80"/>
			<point x="183" y="108" type="curve" smooth="yes"/>
			<point x="185" y="184"/>
			<point x="212" y="304"/>
			<point x="286" y="304" type="curve" smooth="yes"/>
			<point x="290" y="304"/>
			<point x="305" y="303"/>
			<point x="325" y="295" type="curve" smooth="yes"/>
			<point x="337" y="290"/>
			<point x="354" y="293"/>
			<point x="362" y="310" type="curve" smooth="yes"/>
			<point x="369" y="325"/>
			<point x="366" y="335"/>
			<point x="346" y="343" type="curve" smooth="yes"/>
			<point x="324" y="352"/>
			<point x="299" y="354"/>
			<point x="286" y="354" type="curve" smooth="yes"/>
			<point x="173" y="354"/>
			<point x="133" y="210"/>
			<point x="132" y="98" type="curve" smooth="yes"/>
			<point x="132" y="23"/>
			<point x="177" y="-1"/>
		</contour>
		<contour>
			<point x="39" y="0" type="curve" smooth="yes"/>
			<point x="123" y="0"/>
			<point x="186" y="121"/>
			<point x="202" y="232" type="curve" smooth="yes"/>
			<point x="212" y="299"/>
			<point x="173" y="343"/>
			<point x="132" y="349" type="curve" smooth="yes"/>
			<point x="80" y="356"/>
			<point x="52" y="332"/>
			<point x="21" y="285" type="curve" smooth="yes"/>
			<point x="15" y="276"/>
			<point x="23" y="262"/>
			<point x="29" y="257" type="curve" smooth="yes"/>
			<point x="36" y="252"/>
			<point x="54" y="246"/>
			<point x="61" y="256" type="curve" smooth="yes"/>
			<point x="85" y="291"/>
			<point x="102" y="303"/>
			<point x="125" y="300" type="curve" smooth="yes"/>
			<point x="153" y="296"/>
			<point x="155" y="257"/>
			<point x="150" y="229" type="curve" smooth="yes"/>
			<point x="137" y="154"/>
			<point x="91" y="51"/>
			<point x="46" y="51" type="curve" smooth="yes"/>
			<point x="14" y="51"/>
			<point x="4" y="56"/>
			<point x="-6" y="59" type="curve" smooth="yes"/>
			<point x="-16" y="62"/>
			<point x="-32" y="64"/>
			<point x="-41" y="48" type="curve" smooth="yes"/>
			<point x="-49" y="33"/>
			<point x="-43" y="21"/>
			<point x="-28" y="13" type="curve" smooth="yes"/>
			<point x="-17" y="7"/>
			<point x="-2" y="0"/>
		</contour>
	</outline>
</glyph>
<glyph name="y" format="2">
	<advance width="365"/>
	<unicode hex="0079"/>
	<outline>
		<contour>
			<point x="97" y="-4" type="curve" smooth="yes"/>
			<point x="152" y="-4"/>
			<point x="193" y="31"/>
			<point x="239" y="104" type="curve"/>
			<point x="249" y="236" type="line"/>
			<point x="187" y="99"/>
			<point x="142" y="45"/>
			<point x="100" y="45" type="curve" smooth="yes"/>
			<point x="56" y="45"/>
			<point x="48" y="83"/>
			<point x="54" y="117" type="curve" smooth="yes"/>
			<point x="91" y="326" type="line" smooth="yes"/>
			<point x="92" y="334"/>
			<point x="91" y="350"/>
			<point x="69" y="350" type="curve" smooth="yes"/>
			<point x="43" y="350"/>
			<point x="42" y="334"/>
			<point x="41" y="329" type="curve" smooth="yes"/>
			<point x="4" y="120" type="line" smooth="yes"/>
			<point x="-7" y="56"/>
			<point x="25" y="-4"/>
		</contour>
		<contour>
			<point x="64" y="-300" type="curve" smooth="yes"/>
			<point x="106" y="-300"/>
			<point x="145" y="-289"/>
			<point x="171" y="-266" type="curve" smooth="yes"/>
			<point x="213" y="-228"/>
			<point x="228" y="-168"/>
			<point x="239" y="-107" type="curve" smooth="yes"/>
			<point x="315" y="324" type="line" smooth="yes"/>
			<point x="318" y="341"/>
			<point x="307" y="350"/>
			<point x="293" y="350" type="curve" smooth="yes"/>
			<point x="279" y="350"/>
			<point x="267" y="341"/>
			<point x="265" y="330" type="curve" smooth="yes"/>
			<point x="189" y="-103" type="line" smooth="yes"/>
			<point x="183" y="-138"/>
			<point x="171" y="-198"/>
			<point x="141" y="-227" type="curve" smooth="yes"/>
			<point x="122" y="-245"/>
			<point x="88" y="-250"/>
			<point x="63" y="-250" type="curve" smooth="yes"/>
			<point x="35" y="-250"/>
			<point x="12" y="-237"/>
			<point x="-3" y="-229" type="curve" smooth="yes"/>
			<point x="-9" y="-226"/>
			<point x="-23" y="-223"/>
			<point x="-34" y="-234" type="curve" smooth="yes"/>
			<point x="-45" y="-245"/>
			<point x="-43" y="-259"/>
			<point x="-32" y="-268" type="curve" smooth="yes"/>
			<point x="-15" y="-282"/>
			<point x="19" y="-300"/>
		</contour>
	</outline>
</glyph>
<glyph name="z" format="2">
	<advance width="329"/>
	<unicode hex="007A"/>
	<outline>
		<contour>
			<point x="-20" y="0" type="curve" smooth="yes"/>
			<point x="-12" y="0"/>
			<point x="-4" y="5"/>
			<point x="1" y="10" type="curve" smooth="yes"/>
			<point x="307" y="308" type="line"/>
			<point x="312" y="313"/>
			<point x="316" y="317"/>
			<point x="316" y="327" type="curve" smooth="yes"/>
			<point x="316" y="333"/>
			<point x="314" y="339"/>
			<point x="309" y="344" type="curve" smooth="yes"/>
			<point x="304" y="349"/>
			<point x="297" y="350"/>
			<point x="290" y="350" type="curve" smooth="yes"/>
			<point x="283" y="349"/>
			<point x="276" y="346"/>
			<point x="271" y="341" type="curve" smooth="yes"/>
			<point x="-36" y="44" type="line" smooth="yes"/>
			<point x="-44" y="37"/>
			<point x="-45" y="28"/>
			<point x="-44" y="21" type="curve" smooth="yes"/>
			<point x="-43" y="16"/>
			<point x="-40" y="11"/>
			<point x="-36" y="6" type="curve" smooth="yes"/>
			<point x="-32" y="2"/>
			<point x="-27" y="0"/>
		</contour>
		<contour>
			<point x="-22" y="0" type="line"/>
			<point x="237" y="0" type="line" smooth="yes"/>
			<point x="257" y="0"/>
			<point x="263" y="13"/>
			<point x="263" y="25" type="curve" smooth="yes"/>
			<point x="263" y="37"/>
			<point x="257" y="50"/>
			<point x="237" y="50" type="curve" smooth="yes"/>
			<point x="31" y="50" type="line"/>
		</contour>
		<contour>
			<point x="237" y="300" type="line"/>
			<point x="292" y="350" type="line"/>
			<point x="35" y="350" type="line" smooth="yes"/>
			<point x="15" y="350"/>
			<point x="9" y="337"/>
			<point x="9" y="325" type="curve" smooth="yes"/>
			<point x="9" y="313"/>
			<point x="15" y="300"/>
			<point x="35" y="300" type="curve" smooth="yes"/>
		</contour>
	</outline>
</glyph>
<glyph name="braceleft" format="2">
	<advance width="273"/>
	<unicode hex="007B"/>
	<outline>
		<contour>
			<point x="88" y="198" type="line"/>
			<point x="129" y="237"/>
			<point x="142" y="268"/>
			<point x="150" y="312" type="curve" smooth="yes"/>
			<point x="159" y="365"/>
			<point x="144" y="476"/>
			<point x="164" y="535" type="curve" smooth="yes"/>
			<point x="183" y="585"/>
			<point x="228" y="606"/>
			<point x="260" y="617" type="curve" smooth="yes"/>
			<point x="273" y="622"/>
			<point x="277" y="631"/>
			<point x="273" y="642" type="curve" smooth="yes"/>
			<point x="268" y="655"/>
			<point x="251" y="649"/>
			<point x="238" y="644" type="curve" smooth="yes"/>
			<point x="209" y="630"/>
			<point x="151" y="603"/>
			<point x="132" y="551" type="curve" smooth="yes"/>
			<point x="110" y="489"/>
			<point x="123" y="376"/>
			<point x="113" y="318" type="curve" smooth="yes"/>
			<point x="106" y="290"/>
			<point x="94" y="265"/>
			<point x="69" y="241" type="curve" smooth="yes"/>
			<point x="56" y="229"/>
			<point x="46" y="222"/>
			<point x="44" y="206" type="curve"/>
		</contour>
		<contour>
			<point x="119" y="-294" type="curve" smooth="yes"/>
			<point x="127" y="-285"/>
			<point x="119" y="-276"/>
			<point x="109" y="-266" type="curve" smooth="yes"/>
			<point x="82" y="-239"/>
			<point x="66" y="-211"/>
			<point x="64" y="-157" type="curve" smooth="yes"/>
			<point x="62" y="-94"/>
			<point x="108" y="10"/>
			<point x="114" y="64" type="curve" smooth="yes"/>
			<point x="119" y="108"/>
			<point x="115" y="145"/>
			<point x="88" y="198" type="curve"/>
			<point x="44" y="206" type="line"/>
			<point x="44" y="188"/>
			<point x="51" y="179"/>
			<point x="59" y="163" type="curve" smooth="yes"/>
			<point x="75" y="130"/>
			<point x="80" y="101"/>
			<point x="77" y="72" type="curve" smooth="yes"/>
			<point x="70" y="15"/>
			<point x="25" y="-93"/>
			<point x="28" y="-159" type="curve" smooth="yes"/>
			<point x="31" y="-216"/>
			<point x="63" y="-261"/>
			<point x="88" y="-288" type="curve" smooth="yes"/>
			<point x="99" y="-300"/>
			<point x="111" y="-304"/>
		</contour>
	</outline>
</glyph>
<glyph name="bar" format="2">
  <advance width="201"/>
  <unicode hex="007C"/>
  <outline>
    <contour>
      <point x="189" y="668" type="line" smooth="yes"/>
      <point x="193" y="690"/>
      <point x="182" y="700"/>
      <point x="169" y="700" type="curve" smooth="yes"/>
      <point x="157" y="700"/>
      <point x="142" y="690"/>
      <point x="139" y="672" type="curve" smooth="yes"/>
      <point x="-28" y="-273" type="line" smooth="yes"/>
      <point x="-31" y="-288"/>
      <point x="-22" y="-300"/>
      <point x="-4" y="-300" type="curve" smooth="yes"/>
      <point x="18" y="-300"/>
      <point x="21" y="-285"/>
      <point x="23" y="-275" type="curve" smooth="yes"/>
    </contour>
  </outline>
</glyph>
<glyph name="braceright" format="2">
  <advance width="374"/>
  <unicode hex="007D"/>
  <outline>
    <contour>
      <point x="51" y="-300" type="curve" smooth="yes"/>
      <point x="90" y="-288"/>
      <point x="165" y="-255"/>
      <point x="190" y="-205" type="curve" smooth="yes"/>
      <point x="219" y="-147"/>
      <point x="187" y="10"/>
      <point x="196" y="59" type="curve" smooth="yes"/>
      <point x="202" y="88"/>
      <point x="220" y="112"/>
      <point x="252" y="136" type="curve" smooth="yes"/>
      <point x="269" y="148"/>
      <point x="284" y="155"/>
      <point x="284" y="171" type="curve" smooth="yes"/>
      <point x="285" y="188"/>
      <point x="272" y="198"/>
      <point x="259" y="214" type="curve" smooth="yes"/>
      <point x="234" y="247"/>
      <point x="223" y="276"/>
      <point x="224" y="305" type="curve" smooth="yes"/>
      <point x="229" y="362"/>
      <point x="280" y="439"/>
      <point x="270" y="505" type="curve" smooth="yes"/>
      <point x="261" y="562"/>
      <point x="207" y="612"/>
      <point x="170" y="639" type="curve" smooth="yes"/>
      <point x="154" y="651"/>
      <point x="136" y="653"/>
      <point x="126" y="643" type="curve" smooth="yes"/>
      <point x="116" y="634"/>
      <point x="122" y="613"/>
      <point x="136" y="603" type="curve" smooth="yes"/>
      <point x="176" y="576"/>
      <point x="212" y="557"/>
      <point x="219" y="503" type="curve" smooth="yes"/>
      <point x="228" y="440"/>
      <point x="175" y="367"/>
      <point x="171" y="313" type="curve" smooth="yes"/>
      <point x="168" y="269"/>
      <point x="183" y="232"/>
      <point x="224" y="179" type="curve"/>
      <point x="171" y="140"/>
      <point x="151" y="109"/>
      <point x="144" y="65" type="curve" smooth="yes"/>
      <point x="136" y="13"/>
      <point x="172" y="-134"/>
      <point x="143" y="-188" type="curve" smooth="yes"/>
      <point x="124" y="-224"/>
      <point x="72" y="-239"/>
      <point x="28" y="-250" type="curve" smooth="yes"/>
      <point x="11" y="-255"/>
      <point x="-3" y="-270"/>
      <point x="0" y="-284" type="curve" smooth="yes"/>
      <point x="3" y="-299"/>
      <point x="29" y="-307"/>
    </contour>
  </outline>
</glyph>
<glyph name="exclamdown" format="2">
	<advance width="261"/>
	<unicode hex="00A1"/>
	<outline>
		<contour>
			<point x="69" y="0" type="curve" smooth="yes"/>
			<point x="81" y="0"/>
			<point x="95" y="7"/>
			<point x="98" y="21" type="curve" smooth="yes"/>
			<point x="172" y="424" type="line" smooth="yes"/>
			<point x="175" y="441"/>
			<point x="163" y="450"/>
			<point x="151" y="451" type="curve" smooth="yes"/>
			<point x="139" y="452"/>
			<point x="124" y="443"/>
			<point x="121" y="424" type="curve" smooth="yes"/>
			<point x="47" y="21" type="line" smooth="yes"/>
			<point x="44" y="6"/>
			<point x="56" y="0"/>
		</contour>
		<contour>
			<point x="181" y="570" type="curve" smooth="yes"/>
			<point x="204" y="570"/>
			<point x="220" y="589"/>
			<point x="220" y="609" type="curve" smooth="yes"/>
			<point x="220" y="629"/>
			<point x="204" y="650"/>
			<point x="181" y="650" type="curve" smooth="yes"/>
			<point x="159" y="650"/>
			<point x="140" y="630"/>
			<point x="140" y="609" type="curve" smooth="yes"/>
			<point x="140" y="588"/>
			<point x="159" y="570"/>
		</contour>
	</outline>
</glyph>
<glyph name="brokenbar" format="2">
  <advance width="201"/>
  <unicode hex="00A6"/>
  <outline>
    <contour>
      <point x="95" y="135" type="line" smooth="yes"/>
      <point x="98" y="152"/>
      <point x="87" y="162"/>
      <point x="75" y="162" type="curve" smooth="yes"/>
      <point x="62" y="162"/>
      <point x="47" y="152"/>
      <point x="44" y="135" type="curve" smooth="yes"/>
      <point x="-28" y="-273" type="line" smooth="yes"/>
      <point x="-31" y="-288"/>
      <point x="-22" y="-300"/>
      <point x="-4" y="-300" type="curve" smooth="yes"/>
      <point x="18" y="-300"/>
      <point x="21" y="-285"/>
      <point x="23" y="-275" type="curve" smooth="yes"/>
    </contour>
    <contour>
      <point x="189" y="668" type="line" smooth="yes"/>
      <point x="193" y="690"/>
      <point x="182" y="700"/>
      <point x="169" y="700" type="curve" smooth="yes"/>
      <point x="157" y="700"/>
      <point x="142" y="690"/>
      <point x="139" y="672" type="curve" smooth="yes"/>
      <point x="67" y="266" type="line" smooth="yes"/>
      <point x="64" y="249"/>
      <point x="75" y="238"/>
      <point x="88" y="239" type="curve" smooth="yes"/>
      <point x="101" y="239"/>
      <point x="115" y="249"/>
      <point x="118" y="266" type="curve" smooth="yes"/>
    </contour>
  </outline>
</glyph>
<glyph name="degree" format="2">
	<advance width="310"/>
	<unicode hex="00B0"/>
	<outline>
		<contour>
			<point x="187" y="433"/>
			<point x="233" y="465"/>
			<point x="271" y="516"/>
			<point x="293" y="571"/>
			<point x="293" y="595" type="qcurve" smooth="yes"/>
			<point x="293" y="624"/>
			<point x="259" y="655"/>
			<point x="225" y="655" type="qcurve" smooth="yes"/>
			<point x="197" y="655"/>
			<point x="158" y="624"/>
			<point x="147" y="604" type="qcurve" smooth="yes"/>
			<point x="139" y="588"/>
			<point x="119" y="531"/>
			<point x="119" y="496" type="qcurve" smooth="yes"/>
			<point x="119" y="473"/>
			<point x="130" y="445"/>
			<point x="150" y="433"/>
			<point x="163" y="433" type="qcurve" smooth="yes"/>
		</contour>
		<contour>
			<point x="161" y="472"/>
			<point x="158" y="490"/>
			<point x="158" y="503" type="qcurve" smooth="yes"/>
			<point x="158" y="523"/>
			<point x="174" y="566"/>
			<point x="184" y="588" type="qcurve"/>
			<point x="193" y="603"/>
			<point x="210" y="615"/>
			<point x="223" y="615" type="qcurve" smooth="yes"/>
			<point x="240" y="615"/>
			<point x="253" y="604"/>
			<point x="253" y="588" type="qcurve" smooth="yes"/>
			<point x="253" y="574"/>
			<point x="236" y="535"/>
			<point x="210" y="497"/>
			<point x="182" y="472"/>
			<point x="170" y="472" type="qcurve" smooth="yes"/>
		</contour>
	</outline>
</glyph>
<glyph name="periodcentered" format="2">
	<advance width="258"/>
	<unicode hex="00B7"/>
	<outline>
		<contour>
			<point x="103" y="138" type="curve" smooth="yes"/>
			<point x="124" y="138"/>
			<point x="143" y="158"/>
			<point x="143" y="179" type="curve" smooth="yes"/>
			<point x="143" y="201"/>
			<point x="124" y="218"/>
			<point x="103" y="218" type="curve" smooth="yes"/>
			<point x="81" y="218"/>
			<point x="64" y="200"/>
			<point x="64" y="179" type="curve" smooth="yes"/>
			<point x="64" y="159"/>
			<point x="81" y="138"/>
		</contour>
	</outline>
</glyph>
<glyph name="questiondown" format="2">
	<advance width="488"/>
	<unicode hex="00BF"/>
	<outline>
		<contour>
			<point x="200" y="0" type="curve" smooth="yes"/>
			<point x="315" y="0"/>
			<point x="379" y="64"/>
			<point x="396" y="159" type="curve" smooth="yes"/>
			<point x="400" y="181"/>
			<point x="395" y="194"/>
			<point x="384" y="197" type="curve" smooth="yes"/>
			<point x="371" y="200"/>
			<point x="351" y="191"/>
			<point x="347" y="169" type="curve" smooth="yes"/>
			<point x="337" y="112"/>
			<point x="299" y="50"/>
			<point x="214" y="50" type="curve" smooth="yes"/>
			<point x="148" y="50"/>
			<point x="94" y="86"/>
			<point x="105" y="147" type="curve" smooth="yes"/>
			<point x="113" y="193"/>
			<point x="137" y="332"/>
			<point x="299" y="332" type="curve"/>
			<point x="304" y="382" type="line"/>
			<point x="148" y="382"/>
			<point x="80" y="290"/>
			<point x="55" y="151" type="curve" smooth="yes"/>
			<point x="41" y="72"/>
			<point x="109" y="0"/>
		</contour>
		<contour>
			<point x="301" y="332" type="curve" smooth="yes"/>
			<point x="312" y="332"/>
			<point x="324" y="340"/>
			<point x="326" y="351" type="curve" smooth="yes"/>
			<point x="344" y="452" type="line" smooth="yes"/>
			<point x="346" y="466"/>
			<point x="336" y="476"/>
			<point x="324" y="479" type="curve" smooth="yes"/>
			<point x="311" y="481"/>
			<point x="297" y="474"/>
			<point x="293" y="452" type="curve" smooth="yes"/>
			<point x="275" y="351" type="line" smooth="yes"/>
			<point x="274" y="344"/>
			<point x="281" y="332"/>
		</contour>
		<contour>
			<point x="347" y="570" type="curve" smooth="yes"/>
			<point x="368" y="570"/>
			<point x="386" y="589"/>
			<point x="386" y="611" type="curve" smooth="yes"/>
			<point x="386" y="630"/>
			<point x="368" y="650"/>
			<point x="347" y="650" type="curve" smooth="yes"/>
			<point x="325" y="650"/>
			<point x="306" y="631"/>
			<point x="306" y="611" type="curve" smooth="yes"/>
			<point x="306" y="588"/>
			<point x="324" y="570"/>
		</contour>
	</outline>
</glyph>
<glyph name="multiply" format="2">
	<advance width="460"/>
	<unicode hex="00D7"/>
	<outline>
		<contour>
			<point x="358" y="290" type="line" smooth="yes"/>
			<point x="372" y="302"/>
			<point x="370" y="317"/>
			<point x="361" y="325" type="curve" smooth="yes"/>
			<point x="352" y="334"/>
			<point x="336" y="337"/>
			<point x="322" y="325" type="curve" smooth="yes"/>
			<point x="56" y="101" type="line" smooth="yes"/>
			<point x="44" y="91"/>
			<point x="46" y="76"/>
			<point x="54" y="67" type="curve" smooth="yes"/>
			<point x="63" y="58"/>
			<point x="78" y="54"/>
			<point x="94" y="67" type="curve" smooth="yes"/>
		</contour>
		<contour>
			<point x="134" y="321" type="line" smooth="yes"/>
			<point x="121" y="336"/>
			<point x="106" y="335"/>
			<point x="97" y="327" type="curve" smooth="yes"/>
			<point x="88" y="318"/>
			<point x="84" y="303"/>
			<point x="94" y="291" type="curve" smooth="yes"/>
			<point x="283" y="69" type="line" smooth="yes"/>
			<point x="294" y="56"/>
			<point x="309" y="58"/>
			<point x="318" y="66" type="curve" smooth="yes"/>
			<point x="328" y="74"/>
			<point x="332" y="89"/>
			<point x="321" y="102" type="curve" smooth="yes"/>
		</contour>
	</outline>
</glyph>
<glyph name="endash" format="2">
	<advance width="460"/>
	<unicode hex="2013"/>
	<outline>
		<contour>
			<point x="95" y="175" type="curve" smooth="yes"/>
			<point x="322" y="175" type="line" smooth="yes"/>
			<point x="340" y="175"/>
			<point x="349" y="187"/>
			<point x="349" y="199" type="curve" smooth="yes"/>
			<point x="349" y="210"/>
			<point x="340" y="220"/>
			<point x="322" y="220" type="curve" smooth="yes"/>
			<point x="95" y="220" type="line" smooth="yes"/>
			<point x="77" y="220"/>
			<point x="68" y="210"/>
			<point x="68" y="199" type="curve" smooth="yes"/>
			<point x="68" y="187"/>
			<point x="77" y="175"/>
		</contour>
	</outline>
</glyph>
<glyph name="emdash" format="2">
	<advance width="562"/>
	<unicode hex="2014"/>
	<outline>
		<contour>
			<point x="97" y="175" type="curve" smooth="yes"/>
			<point x="420" y="175" type="line" smooth="yes"/>
			<point x="440" y="175"/>
			<point x="451" y="187"/>
			<point x="451" y="199" type="curve" smooth="yes"/>
			<point x="451" y="209"/>
			<point x="441" y="220"/>
			<point x="420" y="220" type="curve" smooth="yes"/>
			<point x="97" y="220" type="line" smooth="yes"/>
			<point x="77" y="220"/>
			<point x="67" y="209"/>
			<point x="67" y="199" type="curve" smooth="yes"/>
			<point x="67" y="187"/>
			<point x="78" y="175"/>
		</contour>
	</outline>
</glyph>
<glyph name="ellipsis" format="2">
	<advance width="474"/>
	<unicode hex="2026"/>
	<outline>
		<contour>
			<point x="291" y="-30" type="curve" smooth="yes"/>
			<point x="311" y="-30"/>
			<point x="329" y="-12"/>
			<point x="329" y="9" type="curve" smooth="yes"/>
			<point x="329" y="29"/>
			<point x="311" y="46"/>
			<point x="291" y="46" type="curve" smooth="yes"/>
			<point x="270" y="46"/>
			<point x="254" y="29"/>
			<point x="254" y="9" type="curve" smooth="yes"/>
			<point x="254" y="-11"/>
			<point x="270" y="-30"/>
		</contour>
		<contour>
			<point x="71" y="-30" type="curve" smooth="yes"/>
			<point x="91" y="-30"/>
			<point x="109" y="-12"/>
			<point x="109" y="9" type="curve" smooth="yes"/>
			<point x="109" y="29"/>
			<point x="91" y="46"/>
			<point x="71" y="46" type="curve" smooth="yes"/>
			<point x="50" y="46"/>
			<point x="34" y="29"/>
			<point x="34" y="9" type="curve" smooth="yes"/>
			<point x="34" y="-11"/>
			<point x="50" y="-30"/>
		</contour>
		<contour>
			<point x="181" y="-30" type="curve" smooth="yes"/>
			<point x="201" y="-30"/>
			<point x="219" y="-12"/>
			<point x="219" y="9" type="curve" smooth="yes"/>
			<point x="219" y="29"/>
			<point x="201" y="46"/>
			<point x="181" y="46" type="curve" smooth="yes"/>
			<point x="160" y="46"/>
			<point x="144" y="29"/>
			<point x="144" y="9" type="curve" smooth="yes"/>
			<point x="144" y="-11"/>
			<point x="160" y="-30"/>
		</contour>
	</outline>
</glyph>
<glyph name="minus" format="2">
	<advance width="459"/>
	<unicode hex="2212"/>
	<outline>
		<contour>
			<point x="321" y="175" type="line" smooth="yes"/>
			<point x="339" y="175"/>
			<point x="348" y="187"/>
			<point x="348" y="198" type="curve" smooth="yes"/>
			<point x="348" y="209"/>
			<point x="339" y="220"/>
			<point x="321" y="220" type="curve" smooth="yes"/>
			<point x="94" y="220" type="line" smooth="yes"/>
			<point x="76" y="220"/>
			<point x="67" y="209"/>
			<point x="67" y="198" type="curve" smooth="yes"/>
			<point x="67" y="186"/>
			<point x="76" y="175"/>
			<point x="94" y="175" type="curve" smooth="yes"/>
		</contour>
	</outline>
</glyph>
<glyph name="infinity" format="2">
	<advance width="745"/>
	<unicode hex="221E"/>
	<outline>
		<contour>
			<point x="311" y="213" type="line"/>
			<point x="322" y="196" type="line" smooth="yes"/>
			<point x="355" y="146"/>
			<point x="404" y="90"/>
			<point x="462" y="80" type="curve" smooth="yes"/>
			<point x="526" y="69"/>
			<point x="622" y="109"/>
			<point x="640" y="211" type="curve" smooth="yes"/>
			<point x="657" y="307"/>
			<point x="585" y="349"/>
			<point x="528" y="359" type="curve" smooth="yes"/>
			<point x="476" y="368"/>
			<point x="399" y="356"/>
			<point x="318" y="279" type="curve"/>
		</contour>
		<contour>
			<point x="321" y="280" type="line"/>
			<point x="262" y="214"/>
			<point x="151" y="123"/>
			<point x="126" y="127" type="curve" smooth="yes"/>
			<point x="107" y="130"/>
			<point x="107" y="191"/>
			<point x="113" y="227" type="curve" smooth="yes"/>
			<point x="120" y="267"/>
			<point x="144" y="322"/>
			<point x="200" y="312" type="curve" smooth="yes"/>
			<point x="241" y="305"/>
			<point x="269" y="267"/>
			<point x="287" y="241" type="curve"/>
			<point x="320" y="279" type="line"/>
			<point x="298" y="309"/>
			<point x="269" y="352"/>
			<point x="214" y="361" type="curve" smooth="yes"/>
			<point x="128" y="377"/>
			<point x="75" y="298"/>
			<point x="62" y="226" type="curve" smooth="yes"/>
			<point x="52" y="168"/>
			<point x="64" y="90"/>
			<point x="118" y="81" type="curve" smooth="yes"/>
			<point x="174" y="71"/>
			<point x="250" y="140"/>
			<point x="319" y="210" type="curve"/>
		</contour>
		<contour>
			<point x="352" y="241" type="line"/>
			<point x="419" y="307"/>
			<point x="474" y="319"/>
			<point x="513" y="312" type="curve" smooth="yes"/>
			<point x="561" y="303"/>
			<point x="600" y="263"/>
			<point x="591" y="214" type="curve" smooth="yes"/>
			<point x="581" y="158"/>
			<point x="514" y="123"/>
			<point x="471" y="130" type="curve" smooth="yes"/>
			<point x="430" y="137"/>
			<point x="390" y="186"/>
			<point x="362" y="227" type="curve" smooth="yes"/>
		</contour>
	</outline>
</glyph>
<glyph name="notequal" format="2">
	<advance width="460"/>
	<unicode hex="2260"/>
	<outline>
		<contour>
			<point x="287" y="312" type="line" smooth="yes"/>
			<point x="299" y="337"/>
			<point x="287" y="350"/>
			<point x="273" y="350" type="curve" smooth="yes"/>
			<point x="263" y="350"/>
			<point x="253" y="345"/>
			<point x="247" y="333" type="curve" smooth="yes"/>
			<point x="126" y="72" type="line" smooth="yes"/>
			<point x="118" y="54"/>
			<point x="126" y="42"/>
			<point x="137" y="38" type="curve" smooth="yes"/>
			<point x="147" y="35"/>
			<point x="160" y="38"/>
			<point x="166" y="51" type="curve" smooth="yes"/>
		</contour>
		<contour>
			<point x="308" y="97" type="line" smooth="yes"/>
			<point x="326" y="97"/>
			<point x="335" y="108"/>
			<point x="335" y="120" type="curve" smooth="yes"/>
			<point x="335" y="131"/>
			<point x="326" y="142"/>
			<point x="308" y="142" type="curve" smooth="yes"/>
			<point x="81" y="142" type="line" smooth="yes"/>
			<point x="63" y="142"/>
			<point x="54" y="131"/>
			<point x="54" y="120" type="curve" smooth="yes"/>
			<point x="54" y="109"/>
			<point x="63" y="97"/>
			<point x="81" y="97" type="curve" smooth="yes"/>
		</contour>
		<contour>
			<point x="334" y="248" type="line" smooth="yes"/>
			<point x="352" y="248"/>
			<point x="361" y="260"/>
			<point x="361" y="271" type="curve" smooth="yes"/>
			<point x="361" y="282"/>
			<point x="352" y="293"/>
			<point x="334" y="293" type="curve" smooth="yes"/>
			<point x="107" y="293" type="line" smooth="yes"/>
			<point x="89" y="293"/>
			<point x="80" y="282"/>
			<point x="80" y="271" type="curve" smooth="yes"/>
			<point x="80" y="260"/>
			<point x="89" y="248"/>
			<point x="107" y="248" type="curve" smooth="yes"/>
		</contour>
	</outline>
</glyph>
<glyph name="greaterequal" format="2">
  <advance width="439"/>
  <unicode hex="2265"/>
  <outline>
    <contour>
      <point x="292" y="207" type="line" smooth="yes"/>
      <point x="307" y="198"/>
      <point x="318" y="202"/>
      <point x="325" y="212" type="curve" smooth="yes"/>
      <point x="333" y="223"/>
      <point x="333" y="233"/>
      <point x="318" y="243" type="curve" smooth="yes"/>
      <point x="135" y="360" type="line" smooth="yes"/>
      <point x="119" y="370"/>
      <point x="106" y="369"/>
      <point x="98" y="359" type="curve" smooth="yes"/>
      <point x="90" y="348"/>
      <point x="93" y="334"/>
      <point x="108" y="324" type="curve" smooth="yes"/>
    </contour>
    <contour>
      <point x="287" y="97" type="line" smooth="yes"/>
      <point x="305" y="97"/>
      <point x="314" y="108"/>
      <point x="314" y="120" type="curve" smooth="yes"/>
      <point x="314" y="131"/>
      <point x="305" y="142"/>
      <point x="287" y="142" type="curve" smooth="yes"/>
      <point x="83" y="142" type="line" smooth="yes"/>
      <point x="65" y="142"/>
      <point x="56" y="131"/>
      <point x="56" y="120" type="curve" smooth="yes"/>
      <point x="56" y="109"/>
      <point x="65" y="97"/>
      <point x="83" y="97" type="curve" smooth="yes"/>
    </contour>
    <contour>
      <point x="311" y="202" type="line"/>
      <point x="310" y="248" type="line"/>
      <point x="104" y="248" type="line" smooth="yes"/>
      <point x="82" y="248"/>
      <point x="74" y="239"/>
      <point x="72" y="227" type="curve" smooth="yes"/>
      <point x="71" y="216"/>
      <point x="76" y="202"/>
      <point x="98" y="202" type="curve" smooth="yes"/>
    </contour>
  </outline>
</glyph>
<glyph name="a.ss01" format="2">
	<advance width="405"/>
	<outline>
		<contour>
			<point x="280" y="0" type="curve" smooth="yes"/>
			<point x="210" y="0"/>
			<point x="209" y="83"/>
			<point x="221" y="151" type="curve" smooth="yes"/>
			<point x="256" y="350" type="line"/>
			<point x="286" y="350" type="line" smooth="yes"/>
			<point x="302" y="350"/>
			<point x="304" y="334"/>
			<point x="301" y="316" type="curve" smooth="yes"/>
			<point x="268" y="132" type="line" smooth="yes"/>
			<point x="265" y="115"/>
			<point x="260" y="46"/>
			<point x="279" y="46" type="curve" smooth="yes"/>
			<point x="296" y="46"/>
			<point x="323" y="92"/>
			<point x="337" y="114" type="curve" smooth="yes"/>
			<point x="351" y="136" type="line" smooth="yes"/>
			<point x="353" y="139"/>
			<point x="360" y="151"/>
			<point x="372" y="149" type="curve" smooth="yes"/>
			<point x="383" y="148"/>
			<point x="394" y="140"/>
			<point x="394" y="125" type="curve" smooth="yes"/>
			<point x="394" y="117"/>
			<point x="391" y="111"/>
			<point x="373" y="83" type="curve" smooth="yes"/>
			<point x="351" y="52"/>
			<point x="322" y="0"/>
		</contour>
		<contour>
			<point x="85" y="-4" type="curve" smooth="yes"/>
			<point x="41" y="-4"/>
			<point x="-23" y="47"/>
			<point x="-5" y="147" type="curve" smooth="yes"/>
			<point x="11" y="237"/>
			<point x="60" y="350"/>
			<point x="226" y="350" type="curve"/>
			<point x="260" y="350" type="line"/>
			<point x="252" y="300" type="line"/>
			<point x="229" y="300" type="line"/>
			<point x="95" y="300"/>
			<point x="56" y="205"/>
			<point x="46" y="147" type="curve" smooth="yes"/>
			<point x="35" y="82"/>
			<point x="60" y="46"/>
			<point x="93" y="46" type="curve" smooth="yes"/>
			<point x="128" y="46"/>
			<point x="193" y="139"/>
			<point x="246" y="270" type="curve"/>
			<point x="225" y="113" type="line"/>
			<point x="189" y="49"/>
			<point x="145" y="-4"/>
		</contour>
	</outline>
</glyph>
